<svg width="110" height="96" viewBox="0 0 110 96" fill="none" xmlns="http://www.w3.org/2000/svg">
<path fill-rule="evenodd" clip-rule="evenodd" d="M11.0257 26.2725C8.734 26.2725 6.875 28.1296 6.875 30.4213V87.1373H0V89.9826C0 93.246 2.64733 95.8933 5.91067 95.8933H103.173C106.436 95.8933 109.083 93.246 109.083 89.9826V87.1373H101.292V30.4213C101.292 28.1296 99.4345 26.2725 97.1428 26.2725H11.0257Z" fill="url(#paint0_linear)"/>
<path fill-rule="evenodd" clip-rule="evenodd" d="M97.2241 82.8731H10.9419V32.6343C10.9419 31.2849 12.0364 30.1923 13.3876 30.1923H94.7802C96.1296 30.1923 97.2241 31.2849 97.2241 32.6343V82.8731Z" fill="#FEFEFE"/>
<path fill-rule="evenodd" clip-rule="evenodd" d="M11.1718 82.644H96.9956V32.6343C96.9956 31.4133 96.0019 30.4215 94.7791 30.4215H13.3864C12.1654 30.4215 11.1718 31.4133 11.1718 32.6343V82.644ZM97.4539 83.1023H10.7134V32.6343C10.7134 31.1603 11.9124 29.9631 13.3864 29.9631H94.7791C96.2531 29.9631 97.4539 31.1603 97.4539 32.6343V83.1023Z" fill="#263148"/>
<path fill-rule="evenodd" clip-rule="evenodd" d="M88.4189 42.554H60.9281L55.1897 47.3812V42.554C52.2931 42.554 49.9427 40.2055 49.9427 37.307V17.6757C49.9427 14.7772 52.2931 12.4269 55.1897 12.4269H88.4189C91.3156 12.4269 93.6659 14.7772 93.6659 17.6757V37.307C93.6659 40.2055 91.3156 42.554 88.4189 42.554Z" fill="#263148"/>
<mask id="mask0" mask-type="alpha" maskUnits="userSpaceOnUse" x="0" y="0" width="110" height="96">
<path fill-rule="evenodd" clip-rule="evenodd" d="M0 95.8933H109.083V0.83313H0V95.8933Z" fill="white"/>
</mask>
<g mask="url(#mask0)">
<path fill-rule="evenodd" clip-rule="evenodd" d="M57.2715 22.7103H86.339V22.252H57.2715V22.7103Z" fill="#FEFEFE"/>
<path fill-rule="evenodd" clip-rule="evenodd" d="M57.2697 27.719H80.2083V27.2606H57.2697V27.719Z" fill="#FEFEFE"/>
<path fill-rule="evenodd" clip-rule="evenodd" d="M57.2697 32.7313H71.6907V32.2729H57.2697V32.7313Z" fill="#FEFEFE"/>
<path fill-rule="evenodd" clip-rule="evenodd" d="M54.0457 31.1908H26.5549L20.8184 36.0161V31.1908C17.9199 31.1908 15.5714 28.8404 15.5714 25.9438V6.3106C15.5714 3.4121 17.9199 1.06177 20.8184 1.06177H54.0457C56.9442 1.06177 59.2927 3.4121 59.2927 6.3106V25.9438C59.2927 28.8404 56.9442 31.1908 54.0457 31.1908Z" fill="#FEFEFE"/>
<path fill-rule="evenodd" clip-rule="evenodd" d="M20.8184 1.29159C18.0501 1.29159 15.8006 3.54292 15.8006 6.30942V25.9426C15.8006 28.7109 18.0501 30.9623 20.8184 30.9623H21.0476V35.5236L26.4706 30.9623H54.0458C56.8141 30.9623 59.0636 28.7109 59.0636 25.9426V6.30942C59.0636 3.54292 56.8141 1.29159 54.0458 1.29159H20.8184ZM20.5893 36.5081V31.4151C17.6743 31.2941 15.3423 28.8869 15.3423 25.9426V6.30942C15.3423 3.28992 17.7989 0.833252 20.8184 0.833252H54.0458C57.0653 0.833252 59.5219 3.28992 59.5219 6.30942V25.9426C59.5219 28.9639 57.0653 31.4206 54.0458 31.4206H26.6393L20.5893 36.5081Z" fill="#263148"/>
<path fill-rule="evenodd" clip-rule="evenodd" d="M22.9001 11.3454H51.9658V10.8871H22.9001V11.3454Z" fill="#263148"/>
<path fill-rule="evenodd" clip-rule="evenodd" d="M22.9001 16.3559H51.9658V15.8976H22.9001V16.3559Z" fill="#263148"/>
<path fill-rule="evenodd" clip-rule="evenodd" d="M22.8983 21.3646H37.3193V20.9062H22.8983V21.3646Z" fill="#263148"/>
<path fill-rule="evenodd" clip-rule="evenodd" d="M54.0356 55.604H59.8216V55.1456H54.0356V55.604Z" fill="#263148"/>
<path fill-rule="evenodd" clip-rule="evenodd" d="M61.4258 55.604H67.2118V55.1456H61.4258V55.604Z" fill="#263148"/>
<path fill-rule="evenodd" clip-rule="evenodd" d="M54.0356 59.9581H59.8216V59.4998H54.0356V59.9581Z" fill="#263148"/>
<path fill-rule="evenodd" clip-rule="evenodd" d="M61.4258 59.9581H67.2118V59.4998H61.4258V59.9581Z" fill="#263148"/>
<path fill-rule="evenodd" clip-rule="evenodd" d="M68.816 55.604H74.602V55.1456H68.816V55.604Z" fill="#263148"/>
<path fill-rule="evenodd" clip-rule="evenodd" d="M44.4475 67.5941H23.4082V52.9843C23.4082 47.1744 28.1199 42.4646 33.9297 42.4646C39.7395 42.4646 44.4475 47.1744 44.4475 52.9843V67.5941Z" fill="#263148"/>
<path fill-rule="evenodd" clip-rule="evenodd" d="M36.8493 47.3899C36.2773 50.3544 33.6758 52.5947 30.5445 52.5947C29.4316 52.5947 28.4031 52.2867 27.492 51.7899C27.4278 52.1712 27.3783 52.5617 27.3783 52.9852C27.3783 56.9947 30.3116 61.3562 33.9288 61.3562C37.546 61.3562 40.4775 56.9947 40.4775 52.9852C40.4775 50.1436 38.9943 48.2607 36.8493 47.3899Z" fill="#FEFEFE"/>
<path fill-rule="evenodd" clip-rule="evenodd" d="M27.6701 52.1416C27.6335 52.3982 27.6078 52.6824 27.6078 52.9849C27.6078 56.7506 30.3688 61.1267 33.9291 61.1267C37.4876 61.1267 40.2486 56.7506 40.2486 52.9849C40.2486 50.5227 39.1028 48.6619 37.0146 47.7104C36.307 50.6896 33.6303 52.8236 30.543 52.8236C29.5621 52.8236 28.596 52.5944 27.6701 52.1416ZM33.9291 61.5851C30.7941 61.5851 27.1495 57.8304 27.1495 52.9849C27.1495 52.5211 27.2081 52.1031 27.265 51.7529L27.3181 51.4339L27.6005 51.5897C28.5483 52.1031 29.5383 52.3652 30.543 52.3652C33.5056 52.3652 36.0613 50.2551 36.6241 47.3474L36.6773 47.0724L36.9358 47.1769C39.332 48.1504 40.707 50.2679 40.707 52.9849C40.707 57.8304 37.0641 61.5851 33.9291 61.5851Z" fill="#263148"/>
<path fill-rule="evenodd" clip-rule="evenodd" d="M32.538 67.7094H35.321V61.3569H32.538V67.7094Z" fill="#FEFEFE"/>
<path fill-rule="evenodd" clip-rule="evenodd" d="M32.7672 67.4803H35.0918V61.5861H32.7672V67.4803ZM32.3088 67.9386H35.5502V61.1278H32.3088V67.9386Z" fill="#263148"/>
<path fill-rule="evenodd" clip-rule="evenodd" d="M46.5907 76.4582H21.2668V67.4914C21.2668 65.2896 23.6593 63.5039 26.6147 63.5039H31.6398L33.9773 65.7571L36.0948 63.5039H41.2447C44.1963 63.5039 46.5907 65.2896 46.5907 67.4914V76.4582Z" fill="#8DD7F7"/>
<path fill-rule="evenodd" clip-rule="evenodd" d="M21.4951 76.2291H46.3606V67.4914C46.3606 65.4198 44.0671 63.7331 41.2437 63.7331H36.1947L33.9856 66.0834L31.5454 63.7331H26.6137C23.7922 63.7331 21.4951 65.4198 21.4951 67.4914V76.2291ZM46.8189 76.6874H21.0367V67.4914C21.0367 65.1668 23.5374 63.2748 26.6137 63.2748H31.7324L33.9691 65.4308L35.9967 63.2748H41.2437C44.3182 63.2748 46.8189 65.1668 46.8189 67.4914V76.6874Z" fill="#263148"/>
<path fill-rule="evenodd" clip-rule="evenodd" d="M41.4186 76.35H41.877V69.981H41.4186V76.35Z" fill="#263148"/>
<path fill-rule="evenodd" clip-rule="evenodd" d="M26.0792 76.35H26.5375V69.981H26.0792V76.35Z" fill="#263148"/>
</g>
<defs>
<linearGradient id="paint0_linear" x1="0" y1="95.8361" x2="108.903" y2="95.8361" gradientUnits="userSpaceOnUse">
<stop stop-color="#C7EAFB"/>
<stop offset="1" stop-color="#8ED8F8"/>
</linearGradient>
</defs>
</svg>
