<svg width="110" height="124" viewBox="0 0 110 124" fill="none" xmlns="http://www.w3.org/2000/svg">
<path fill-rule="evenodd" clip-rule="evenodd" d="M6.88967 17.6652C3.0855 17.6652 0 20.7488 0 24.5548V98.3153C0 102.121 3.0855 105.207 6.88967 105.207H34.6243L31.9018 113.145C30.3912 117.551 32.8662 122.642 37.1232 123.183C37.3853 123.217 37.6548 123.234 37.9262 123.234H71.1572C71.4285 123.234 71.698 123.217 71.9602 123.183C76.2172 122.642 78.6922 117.551 77.1815 113.145L74.459 105.207H102.194C106 105.207 109.083 102.121 109.083 98.3153V24.5548C109.083 20.7488 106 17.6652 102.194 17.6652H6.88967Z" fill="url(#paint0_linear)"/>
<path fill-rule="evenodd" clip-rule="evenodd" d="M104.384 85.8041H4.69975V25.4232C4.69975 23.6742 6.11692 22.2571 7.86592 22.2571H101.216C102.966 22.2571 104.384 23.6742 104.384 25.4232V85.8041Z" fill="#FEFEFE"/>
<path fill-rule="evenodd" clip-rule="evenodd" d="M4.92891 85.575H104.154V25.4233C104.154 23.8045 102.836 22.4863 101.217 22.4863H7.86775C6.24708 22.4863 4.92891 23.8045 4.92891 25.4233V85.575ZM104.613 86.0333H4.47058V25.4233C4.47058 23.5515 5.99408 22.028 7.86775 22.028H101.217C103.089 22.028 104.613 23.5515 104.613 25.4233V86.0333Z" fill="#263148"/>
<mask id="mask0" mask-type="alpha" maskUnits="userSpaceOnUse" x="0" y="0" width="110" height="124">
<path fill-rule="evenodd" clip-rule="evenodd" d="M0 123.234H109.083V0.833252H0V123.234Z" fill="white"/>
</mask>
<g mask="url(#mask0)">
<path fill-rule="evenodd" clip-rule="evenodd" d="M4.70067 90.6171H104.384V90.1588H4.70067V90.6171Z" fill="#263148"/>
<path fill-rule="evenodd" clip-rule="evenodd" d="M57.2917 97.4146C57.2917 98.9326 56.0597 100.165 54.5417 100.165C53.0237 100.165 51.7917 98.9326 51.7917 97.4146C51.7917 95.8966 53.0237 94.6646 54.5417 94.6646C56.0597 94.6646 57.2917 95.8966 57.2917 97.4146Z" fill="#FEFEFE"/>
<path fill-rule="evenodd" clip-rule="evenodd" d="M54.5417 94.8938C53.152 94.8938 52.0208 96.0249 52.0208 97.4146C52.0208 98.8043 53.152 99.9354 54.5417 99.9354C55.9313 99.9354 57.0625 98.8043 57.0625 97.4146C57.0625 96.0249 55.9313 94.8938 54.5417 94.8938ZM54.5417 100.394C52.899 100.394 51.5625 99.0573 51.5625 97.4146C51.5625 95.7719 52.899 94.4354 54.5417 94.4354C56.1843 94.4354 57.5208 95.7719 57.5208 97.4146C57.5208 99.0573 56.1843 100.394 54.5417 100.394Z" fill="#263148"/>
<path fill-rule="evenodd" clip-rule="evenodd" d="M99.9114 85.8041H50.426V5.36106C50.426 2.98689 52.351 1.06189 54.7252 1.06189H95.6122C97.9864 1.06189 99.9114 2.98689 99.9114 5.36106V85.8041Z" fill="#FEFEFE"/>
<path fill-rule="evenodd" clip-rule="evenodd" d="M50.6548 85.5749H99.6818V5.3611C99.6818 3.1171 97.8558 1.2911 95.6118 1.2911H54.7248C52.4808 1.2911 50.6548 3.1171 50.6548 5.3611V85.5749ZM100.14 86.0333H50.1965V5.3611C50.1965 2.86593 52.2278 0.832764 54.7248 0.832764H95.6118C98.1088 0.832764 100.14 2.86593 100.14 5.3611V86.0333Z" fill="#263148"/>
<path fill-rule="evenodd" clip-rule="evenodd" d="M50.226 9.14742H100.069V8.68909H50.226V9.14742Z" fill="#263148"/>
<path fill-rule="evenodd" clip-rule="evenodd" d="M55.3447 18.5817H61.1307V18.1234H55.3447V18.5817Z" fill="#263148"/>
<path fill-rule="evenodd" clip-rule="evenodd" d="M62.7348 18.5817H68.5208V18.1234H62.7348V18.5817Z" fill="#263148"/>
<path fill-rule="evenodd" clip-rule="evenodd" d="M55.3447 22.2485H61.1307V21.7902H55.3447V22.2485Z" fill="#263148"/>
<path fill-rule="evenodd" clip-rule="evenodd" d="M62.7348 22.2485H68.5208V21.7902H62.7348V22.2485Z" fill="#263148"/>
<path fill-rule="evenodd" clip-rule="evenodd" d="M81.0388 18.5817H86.8248V18.1234H81.0388V18.5817Z" fill="#263148"/>
<path fill-rule="evenodd" clip-rule="evenodd" d="M81.0388 22.2485H86.8248V21.7902H81.0388V22.2485Z" fill="#263148"/>
<path fill-rule="evenodd" clip-rule="evenodd" d="M55.3447 25.9151H61.1307V25.4568H55.3447V25.9151Z" fill="#263148"/>
<path fill-rule="evenodd" clip-rule="evenodd" d="M62.7348 25.9151H65.6278V25.4568H62.7348V25.9151Z" fill="#263148"/>
<path fill-rule="evenodd" clip-rule="evenodd" d="M62.7348 34.2751H85.0208V33.8168H62.7348V34.2751Z" fill="#263148"/>
<path fill-rule="evenodd" clip-rule="evenodd" d="M62.7348 38.1159H85.0208V37.6576H62.7348V38.1159Z" fill="#263148"/>
<path fill-rule="evenodd" clip-rule="evenodd" d="M62.7348 41.9567H73.7917V41.4984H62.7348V41.9567Z" fill="#263148"/>
<path fill-rule="evenodd" clip-rule="evenodd" d="M55.3447 53.0705H61.1307V52.6122H55.3447V53.0705Z" fill="#263148"/>
<path fill-rule="evenodd" clip-rule="evenodd" d="M62.7348 53.0705H68.5208V52.6122H62.7348V53.0705Z" fill="#263148"/>
<path fill-rule="evenodd" clip-rule="evenodd" d="M70.125 53.0705H75.911V52.6122H70.125V53.0705Z" fill="#263148"/>
<path fill-rule="evenodd" clip-rule="evenodd" d="M55.3447 57.1386H61.1307V56.6803H55.3447V57.1386Z" fill="#263148"/>
<path fill-rule="evenodd" clip-rule="evenodd" d="M62.7348 57.1386H68.5208V56.6803H62.7348V57.1386Z" fill="#263148"/>
<path fill-rule="evenodd" clip-rule="evenodd" d="M70.125 57.1386H73.018V56.6803H70.125V57.1386Z" fill="#263148"/>
<path fill-rule="evenodd" clip-rule="evenodd" d="M55.3447 61.2067H61.1307V60.7484H55.3447V61.2067Z" fill="#263148"/>
<path fill-rule="evenodd" clip-rule="evenodd" d="M62.7348 61.2067H68.5208V60.7484H62.7348V61.2067Z" fill="#263148"/>
<path fill-rule="evenodd" clip-rule="evenodd" d="M62.7348 69.5669H85.0208V69.1085H62.7348V69.5669Z" fill="#263148"/>
<path fill-rule="evenodd" clip-rule="evenodd" d="M62.7348 73.4077H85.0208V72.9493H62.7348V73.4077Z" fill="#263148"/>
<path fill-rule="evenodd" clip-rule="evenodd" d="M62.7348 77.2485H73.7917V76.7902H62.7348V77.2485Z" fill="#263148"/>
<path fill-rule="evenodd" clip-rule="evenodd" d="M70.125 61.2067H75.911V60.7484H70.125V61.2067Z" fill="#263148"/>
<path fill-rule="evenodd" clip-rule="evenodd" d="M85.345 6.2169H54.9025C54.1746 6.2169 53.5825 5.6229 53.5825 4.8969C53.5825 4.17274 54.1746 3.57874 54.9025 3.57874H85.345C86.071 3.57874 86.6631 4.17274 86.6631 4.8969C86.6631 5.6229 86.071 6.2169 85.345 6.2169Z" fill="#FEFEFE"/>
<path fill-rule="evenodd" clip-rule="evenodd" d="M54.9015 3.80721C54.3002 3.80721 53.8107 4.29671 53.8107 4.89804C53.8107 5.49938 54.3002 5.98704 54.9015 5.98704H85.344C85.9454 5.98704 86.433 5.49938 86.433 4.89804C86.433 4.29671 85.9454 3.80721 85.344 3.80721H54.9015ZM85.344 6.44538H54.9015C54.0472 6.44538 53.3524 5.75238 53.3524 4.89804C53.3524 4.04371 54.0472 3.34888 54.9015 3.34888H85.344C86.1965 3.34888 86.8914 4.04371 86.8914 4.89804C86.8914 5.75238 86.1965 6.44538 85.344 6.44538Z" fill="#263148"/>
<path fill-rule="evenodd" clip-rule="evenodd" d="M95.8866 6.2169C95.1606 6.2169 94.5666 5.6229 94.5666 4.8969C94.5666 4.17274 95.1606 3.57874 95.8866 3.57874C96.6126 3.57874 97.2048 4.17274 97.2048 4.8969C97.2048 5.6229 96.6126 6.2169 95.8866 6.2169Z" fill="#FEFEFE"/>
<path fill-rule="evenodd" clip-rule="evenodd" d="M95.8866 3.80721C95.2853 3.80721 94.7958 4.29671 94.7958 4.89804C94.7958 5.49938 95.2853 5.98704 95.8866 5.98704C96.4861 5.98704 96.9756 5.49938 96.9756 4.89804C96.9756 4.29671 96.4861 3.80721 95.8866 3.80721ZM95.8866 6.44538C95.0323 6.44538 94.3375 5.75238 94.3375 4.89804C94.3375 4.04371 95.0323 3.34888 95.8866 3.34888C96.7391 3.34888 97.434 4.04371 97.434 4.89804C97.434 5.75238 96.7391 6.44538 95.8866 6.44538Z" fill="#263148"/>
<path fill-rule="evenodd" clip-rule="evenodd" d="M75.625 20.4432V19.9848C76.3675 19.9848 76.8845 19.6347 76.8845 19.3193V14.4628C76.8845 13.834 77.6417 13.339 78.6042 13.339V13.7973C77.8617 13.7973 77.3428 14.1475 77.3428 14.4628V19.3193C77.3428 19.9482 76.5875 20.4432 75.625 20.4432Z" fill="#263148"/>
<path fill-rule="evenodd" clip-rule="evenodd" d="M78.6042 27.0318C77.6417 27.0318 76.8863 26.5368 76.8863 25.9079V21.0514C76.8863 20.7361 76.3675 20.3859 75.625 20.3859V19.9276C76.5875 19.9276 77.3447 20.4226 77.3447 21.0514V25.9079C77.3447 26.2233 77.8617 26.5734 78.6042 26.5734V27.0318Z" fill="#263148"/>
<path fill-rule="evenodd" clip-rule="evenodd" d="M92.2396 20.4432C91.2771 20.4432 90.5217 19.9482 90.5217 19.3193V14.4628C90.5217 14.1475 90.0029 13.7973 89.2604 13.7973V13.339C90.2229 13.339 90.9801 13.834 90.9801 14.4628V19.3193C90.9801 19.6347 91.4971 19.9848 92.2396 19.9848V20.4432Z" fill="#263148"/>
<path fill-rule="evenodd" clip-rule="evenodd" d="M89.2604 27.0318V26.5734C90.0029 26.5734 90.5199 26.2233 90.5199 25.9079V21.0514C90.5199 20.4226 91.2771 19.9276 92.2396 19.9276V20.3859C91.4971 20.3859 90.9782 20.7361 90.9782 21.0514V25.9079C90.9782 26.5368 90.2229 27.0318 89.2604 27.0318Z" fill="#263148"/>
<path fill-rule="evenodd" clip-rule="evenodd" d="M36.5396 72.7074H19.1285C16.9065 72.7074 15.1061 70.9071 15.1061 68.6851V39.3756C15.1061 37.1536 16.9065 35.3533 19.1285 35.3533H36.5396C38.7616 35.3533 40.562 37.1536 40.562 39.3756V68.6851C40.562 70.9071 38.7616 72.7074 36.5396 72.7074Z" fill="#263148"/>
<path fill-rule="evenodd" clip-rule="evenodd" d="M20.7002 60.0573H34.9653V59.599H20.7002V60.0573Z" fill="#FEFEFE"/>
<path fill-rule="evenodd" clip-rule="evenodd" d="M20.7002 63.8963H34.9653V63.438H20.7002V63.8963Z" fill="#FEFEFE"/>
<path fill-rule="evenodd" clip-rule="evenodd" d="M23.9085 67.849H31.757V67.3906H23.9085V67.849Z" fill="#FEFEFE"/>
<path fill-rule="evenodd" clip-rule="evenodd" d="M27.8329 40.2858C23.8803 40.2858 20.6628 43.5033 20.6628 47.456C20.6628 51.4087 23.8803 54.6262 27.8329 54.6262C31.7874 54.6262 35.0049 51.4087 35.0049 47.456C35.0049 43.5033 31.7874 40.2858 27.8329 40.2858ZM27.8329 55.0845C23.6254 55.0845 20.2044 51.6635 20.2044 47.456C20.2044 43.2485 23.6254 39.8275 27.8329 39.8275C32.0404 39.8275 35.4633 43.2485 35.4633 47.456C35.4633 51.6635 32.0404 55.0845 27.8329 55.0845Z" fill="#FEFEFE"/>
<path fill-rule="evenodd" clip-rule="evenodd" d="M33.4369 52.2634C32.0692 50.5493 30.0269 49.5666 27.8324 49.5666C25.6507 49.5666 23.6139 50.5438 22.2444 52.2451L21.885 51.9591C23.3425 50.1478 25.5114 49.1083 27.8324 49.1083C30.1662 49.1083 32.3387 50.1551 33.7944 51.9774L33.4369 52.2634Z" fill="#FEFEFE"/>
<path fill-rule="evenodd" clip-rule="evenodd" d="M27.8329 44.1942C26.4781 44.1942 25.3744 45.2978 25.3744 46.6545C25.3744 48.0112 26.4781 49.1148 27.8329 49.1148C29.1896 49.1148 30.2933 48.0112 30.2933 46.6545C30.2933 45.2978 29.1896 44.1942 27.8329 44.1942ZM27.8329 49.5732C26.2251 49.5732 24.9161 48.2642 24.9161 46.6545C24.9161 45.0448 26.2251 43.7358 27.8329 43.7358C29.4426 43.7358 30.7516 45.0448 30.7516 46.6545C30.7516 48.2642 29.4426 49.5732 27.8329 49.5732Z" fill="#FEFEFE"/>
</g>
<defs>
<linearGradient id="paint0_linear" x1="0" y1="123.147" x2="108.903" y2="123.147" gradientUnits="userSpaceOnUse">
<stop stop-color="#C7EAFB"/>
<stop offset="1" stop-color="#8ED8F8"/>
</linearGradient>
</defs>
</svg>
