<svg width="110" height="111" viewBox="0 0 110 111" fill="none" xmlns="http://www.w3.org/2000/svg">
<path fill-rule="evenodd" clip-rule="evenodd" d="M54.2813 1.8335C24.3008 1.8335 0 26.1362 0 56.1148C0 86.0953 24.3008 110.396 54.2813 110.396C84.26 110.396 108.563 86.0953 108.563 56.1148C108.563 26.1362 84.26 1.8335 54.2813 1.8335Z" fill="url(#paint0_linear)"/>
<path fill-rule="evenodd" clip-rule="evenodd" d="M79.719 49.0105C79.1434 46.9443 78.333 44.979 77.3009 43.1493C74.5967 43.6755 71.6909 42.8926 69.5972 40.799C67.5035 38.7053 66.7207 35.7995 67.2469 33.0953C65.4172 32.0631 63.4519 31.2528 61.3857 30.6771C59.8457 32.956 57.2387 34.4556 54.2815 34.4556C51.3244 34.4556 48.7174 32.956 47.1774 30.6771C45.1112 31.2528 43.1459 32.0631 41.3162 33.0953C41.8424 35.7995 41.0595 38.7053 38.9659 40.799C36.8722 42.8926 33.9664 43.6755 31.2622 43.1493C30.23 44.979 29.4197 46.9443 28.844 49.0105C31.1229 50.5505 32.6225 53.1575 32.6225 56.1146C32.6225 59.0718 31.1229 61.6788 28.844 63.2188C29.4197 65.285 30.23 67.2503 31.2622 69.08C33.9664 68.5538 36.8722 69.3366 38.9659 71.4303C41.0595 73.524 41.8424 76.4298 41.3162 79.134C43.1459 80.1661 45.1112 80.9765 47.1774 81.5521C48.7174 79.2733 51.3244 77.7736 54.2815 77.7736C57.2387 77.7736 59.8457 79.2733 61.3857 81.5521C63.4519 80.9765 65.4172 80.1661 67.2469 79.134C66.7207 76.4298 67.5035 73.524 69.5972 71.4303C71.6909 69.3366 74.5967 68.5538 77.3009 69.08C78.333 67.2503 79.1434 65.285 79.719 63.2188C77.4402 61.6788 75.9405 59.0718 75.9405 56.1146C75.9405 53.1575 77.4402 50.5505 79.719 49.0105Z" fill="#263148"/>
<path fill-rule="evenodd" clip-rule="evenodd" d="M65.0254 56.1147C65.0254 62.0473 60.2147 66.858 54.2821 66.858C48.3476 66.858 43.5369 62.0473 43.5369 56.1147C43.5369 50.182 48.3476 45.3713 54.2821 45.3713C60.2147 45.3713 65.0254 50.182 65.0254 56.1147Z" fill="#FEFEFE"/>
<path fill-rule="evenodd" clip-rule="evenodd" d="M54.2815 45.5999C48.4845 45.5999 43.7674 50.3171 43.7674 56.1141C43.7674 61.9111 48.4845 66.6301 54.2815 66.6301C60.0785 66.6301 64.7957 61.9111 64.7957 56.1141C64.7957 50.3171 60.0785 45.5999 54.2815 45.5999ZM54.2815 67.0884C48.2297 67.0884 43.309 62.1659 43.309 56.1141C43.309 50.0641 48.2297 45.1416 54.2815 45.1416C60.3334 45.1416 65.254 50.0641 65.254 56.1141C65.254 62.1659 60.3334 67.0884 54.2815 67.0884Z" fill="#263148"/>
<path fill-rule="evenodd" clip-rule="evenodd" d="M57.7225 15.237C56.5877 15.1416 55.429 15.094 54.2813 15.094H54.1493V14.6356H54.2813C55.4418 14.6356 56.6133 14.6833 57.761 14.7786L57.7225 15.237ZM47.0323 15.732L46.9498 15.2791C48.1287 15.0683 49.335 14.907 50.5358 14.8025L50.5762 15.2571C49.3882 15.3635 48.1965 15.523 47.0323 15.732ZM64.768 16.4451C63.6075 16.1408 62.4323 15.886 61.2718 15.6861L61.3507 15.2351C62.5222 15.435 63.712 15.6953 64.8817 16.0015L64.768 16.4451ZM40.1335 17.5983L39.9758 17.1693C41.107 16.7531 42.2638 16.3846 43.4207 16.0693L43.5435 16.513C42.3977 16.8228 41.2518 17.1876 40.1335 17.5983ZM71.4908 18.867C70.4128 18.3683 69.2982 17.91 68.1817 17.5066L68.3357 17.0776C69.4668 17.4846 70.5943 17.9485 71.6833 18.4526L71.4908 18.867ZM33.6692 20.6398L33.44 20.242C34.4832 19.6351 35.5612 19.0705 36.6428 18.5608L36.8353 18.977C35.7683 19.4775 34.7013 20.0385 33.6692 20.6398ZM77.6912 22.4236C76.7048 21.7398 75.6892 21.0945 74.6662 20.5096L74.8953 20.1118C75.9293 20.704 76.956 21.3566 77.9515 22.0478L77.6912 22.4236ZM27.83 24.7593L27.533 24.4091C28.4588 23.6281 29.4213 22.8838 30.3967 22.1981L30.6607 22.574C29.6963 23.2505 28.743 23.9856 27.83 24.7593ZM83.182 27.0033C82.346 26.171 81.455 25.3588 80.5347 24.5943L80.8298 24.2423C81.7575 25.016 82.6595 25.8355 83.5047 26.677L83.182 27.0033ZM22.7883 29.8248L22.4382 29.5315C23.2027 28.6185 24.0222 27.7183 24.8747 26.8585L25.201 27.1811C24.3558 28.0318 23.5437 28.9228 22.7883 29.8248ZM87.8002 32.4611C87.109 31.484 86.372 30.5343 85.6093 29.6323L85.9595 29.3335C86.7313 30.2483 87.4757 31.2108 88.1723 32.1953L87.8002 32.4611ZM18.6982 35.6896L18.3003 35.4605C18.9017 34.4155 19.5562 33.387 20.24 32.4061L20.6158 32.6683C19.9393 33.6381 19.294 34.6556 18.6982 35.6896ZM91.399 38.6321C90.8893 37.5505 90.3283 36.4853 89.7325 35.466L90.1303 35.2331C90.7317 36.2671 91.2982 37.3433 91.8152 38.4341L91.399 38.6321ZM15.6878 42.1741L15.2588 42.0165C15.6677 40.889 16.1297 39.7651 16.6375 38.6725L17.0518 38.8668C16.5513 39.9466 16.093 41.0576 15.6878 42.1741ZM93.8722 45.3348C93.5587 44.1816 93.1938 43.0358 92.7832 41.9266L93.2122 41.769C93.6265 42.8891 93.9968 44.0496 94.3158 45.2138L93.8722 45.3348ZM13.8618 49.0821L13.4108 49.0033C13.6162 47.8171 13.8747 46.6273 14.1808 45.4686L14.6245 45.5878C14.322 46.7318 14.0672 47.907 13.8618 49.0821ZM95.1335 52.3675C95.0272 51.185 94.8658 49.9933 94.6568 48.8218L95.1078 48.7393C95.3187 49.9255 95.4818 51.1318 95.5882 52.3235L95.1335 52.3675ZM13.2605 56.2028H12.8022V56.1148C12.8022 54.947 12.8517 53.7626 12.9488 52.5893L13.4072 52.6296C13.3082 53.7865 13.2605 54.9598 13.2605 56.1148V56.2028ZM95.6065 59.7283L95.1482 59.688C95.2508 58.5091 95.3022 57.3046 95.3022 56.1148L95.3003 55.937H95.7587L95.7605 56.1075C95.7605 57.3193 95.7092 58.5348 95.6065 59.7283ZM13.442 63.4005C13.233 62.229 13.0735 61.0226 12.9672 59.8145L13.4218 59.776C13.53 60.9676 13.6858 62.1611 13.893 63.3235L13.442 63.4005ZM94.3598 66.8435L93.9162 66.7261C94.2242 65.5711 94.4845 64.396 94.688 63.2336L95.139 63.3125C94.9337 64.4876 94.6715 65.6775 94.3598 66.8435ZM15.3212 70.3781C14.9087 69.2543 14.5402 68.0938 14.2248 66.9296L14.6703 66.8123C14.982 67.9618 15.345 69.1095 15.7502 70.2205L15.3212 70.3781ZM91.8867 73.636L91.4705 73.4435C91.9765 72.3636 92.4367 71.2526 92.8418 70.1361L93.2727 70.2938C92.862 71.4213 92.3963 72.5451 91.8867 73.636ZM18.3865 76.9176C17.787 75.8818 17.2223 74.802 16.709 73.713L17.1233 73.5186C17.6312 74.5966 18.1903 75.6618 18.7843 76.6885L18.3865 76.9176ZM88.2713 79.8968L87.8955 79.6346C88.583 78.652 89.232 77.6363 89.8205 76.6151L90.2183 76.8443C89.6207 77.8765 88.9662 78.9031 88.2713 79.8968ZM22.5463 82.8265C21.78 81.9171 21.0357 80.9528 20.3353 79.9646L20.713 79.6988C21.4023 80.6778 22.1375 81.6311 22.8965 82.5331L22.5463 82.8265ZM83.6238 85.4316L83.2975 85.109C84.1427 84.262 84.9548 83.3746 85.7175 82.4708L86.0677 82.7641C85.2977 83.6808 84.4763 84.5773 83.6238 85.4316ZM27.665 87.9305C26.741 87.1568 25.8408 86.3355 24.9938 85.4903L25.3165 85.1658C26.1562 86.0036 27.0453 86.8158 27.9602 87.5803L27.665 87.9305ZM78.089 90.0828L77.8287 89.707C78.793 89.0305 79.7482 88.299 80.6648 87.5271L80.9582 87.8773C80.0323 88.6565 79.068 89.399 78.089 90.0828ZM33.5885 92.072C32.5453 91.4706 31.5168 90.818 30.536 90.1305L30.7963 89.7546C31.768 90.4348 32.7837 91.0801 33.8177 91.6741L33.5885 92.072ZM71.8392 93.7073L71.6467 93.2911C72.7338 92.7815 73.8008 92.2223 74.8165 91.6338L75.0457 92.0316C74.019 92.6256 72.941 93.1903 71.8392 93.7073ZM40.1427 95.1208C39.0042 94.7101 37.8785 94.2445 36.7987 93.7384L36.9912 93.3241C38.06 93.8228 39.1728 94.283 40.3003 94.6918L40.1427 95.1208ZM65.054 96.1823L64.9367 95.7386C66.0898 95.4288 67.2375 95.0658 68.3467 94.6606L68.5043 95.0915C67.3842 95.5003 66.2237 95.867 65.054 96.1823ZM47.1277 96.9798C45.9525 96.7763 44.7645 96.516 43.593 96.2061L43.7103 95.7625C44.8672 96.0704 46.0442 96.3253 47.2065 96.5288L47.1277 96.9798ZM57.937 97.4363L57.8985 96.978C59.0755 96.8753 60.2708 96.7176 61.4442 96.5123L61.523 96.9633C60.3368 97.1704 59.1305 97.3299 57.937 97.4363ZM54.2575 97.5921C53.0512 97.5921 51.8687 97.5426 50.7137 97.4436L50.7522 96.9853C51.909 97.0861 53.097 97.1356 54.2813 97.1356L54.3162 97.4858L54.307 97.5921H54.2575Z" fill="#263148"/>
<path fill-rule="evenodd" clip-rule="evenodd" d="M26.0205 34.693H25.5622V26.5677H17.4368V26.1094H26.0205V34.693Z" fill="#263148"/>
<path fill-rule="evenodd" clip-rule="evenodd" d="M88.5544 88.4755H79.9707V79.8918H80.4291V88.0172H88.5544V88.4755Z" fill="#263148"/>
<defs>
<linearGradient id="paint0_linear" x1="0" y1="110.307" x2="108.383" y2="110.307" gradientUnits="userSpaceOnUse">
<stop stop-color="#C7EAFB"/>
<stop offset="1" stop-color="#8ED8F8"/>
</linearGradient>
</defs>
</svg>
