<svg width="114" height="102" viewBox="0 0 114 102" fill="none" xmlns="http://www.w3.org/2000/svg">
<path d="M56.5099 101.02C87.7194 101.02 113.02 78.4056 113.02 50.5098C113.02 22.614 87.7194 0 56.5099 0C25.3003 0 0 22.614 0 50.5098C0 78.4056 25.3003 101.02 56.5099 101.02Z" fill="url(#paint0_linear)"/>
<path d="M72.6191 88.063L57.2612 78.1733L41.9033 88.063" stroke="#263148" stroke-width="0.75" stroke-miterlimit="10" stroke-linecap="round" stroke-linejoin="round"/>
<path d="M57.2612 61.8149V71.7832" stroke="#263148" stroke-width="0.75" stroke-miterlimit="10" stroke-linecap="round" stroke-linejoin="round"/>
<path d="M72.6191 70.0333L57.2612 61.8149L41.9033 70.0333" stroke="#263148" stroke-width="0.75" stroke-miterlimit="10" stroke-linecap="round" stroke-linejoin="round"/>
<path d="M72.6191 31.0648L57.2612 21.1555L41.9033 31.0648" stroke="#263148" stroke-width="0.75" stroke-miterlimit="10" stroke-linecap="round" stroke-linejoin="round"/>
<path d="M57.2612 4.79736V14.7656" stroke="#263148" stroke-width="0.75" stroke-miterlimit="10" stroke-linecap="round" stroke-linejoin="round"/>
<path d="M72.6191 13.0158L57.2612 4.79736L41.9033 13.0158" stroke="#263148" stroke-width="0.75" stroke-miterlimit="10" stroke-linecap="round" stroke-linejoin="round"/>
<path d="M38.2465 59.5542L22.8886 49.6646L7.53076 59.5542" stroke="#263148" stroke-width="0.75" stroke-miterlimit="10" stroke-linecap="round" stroke-linejoin="round"/>
<path d="M22.8887 33.3062V43.2744" stroke="#263148" stroke-width="0.75" stroke-miterlimit="10" stroke-linecap="round" stroke-linejoin="round"/>
<path d="M38.2465 41.5246L22.8886 33.3062L7.53076 41.5246" stroke="#263148" stroke-width="0.75" stroke-miterlimit="10" stroke-linecap="round" stroke-linejoin="round"/>
<path d="M105.469 59.5542L90.1113 49.6646L74.7534 59.5542" stroke="#263148" stroke-width="0.75" stroke-miterlimit="10" stroke-linecap="round" stroke-linejoin="round"/>
<path d="M90.1113 33.3062V43.2744" stroke="#263148" stroke-width="0.75" stroke-miterlimit="10" stroke-linecap="round" stroke-linejoin="round"/>
<path d="M105.469 41.5246L90.1113 33.3062L74.7534 41.5246" stroke="#263148" stroke-width="0.75" stroke-miterlimit="10" stroke-linecap="round" stroke-linejoin="round"/>
<path d="M27.7906 60.2618H18.0066C16.6823 60.2618 15.5952 59.1804 15.5952 57.8631V43.1565C15.5952 41.8392 16.6823 40.7578 18.0066 40.7578H27.7906C29.1149 40.7578 30.202 41.8392 30.202 43.1565V57.8631C30.202 59.1804 29.1149 60.2618 27.7906 60.2618Z" fill="white" stroke="#263148" stroke-width="0.75" stroke-miterlimit="10"/>
<path d="M22.8886 67.6938L7.53076 59.5541V41.5247L22.8886 49.6644V67.6938Z" stroke="#263148" stroke-width="0.75" stroke-miterlimit="10" stroke-linecap="round" stroke-linejoin="round"/>
<path d="M22.8887 67.6938L38.2466 59.5541V41.5247L22.8887 49.6644V67.6938Z" stroke="#263148" stroke-width="0.75" stroke-miterlimit="10" stroke-linecap="round" stroke-linejoin="round"/>
<path d="M26.4858 43.5103H18.0459" stroke="#263148" stroke-width="0.75" stroke-miterlimit="10"/>
<path d="M24.1535 45.614H18.0459" stroke="#263148" stroke-width="0.75" stroke-miterlimit="10"/>
<path d="M95.6461 60.026H85.8621C84.5378 60.026 83.4507 58.9446 83.4507 57.6273V42.9206C83.4507 41.6033 84.5378 40.522 85.8621 40.522H95.6461C96.9704 40.522 98.0575 41.6033 98.0575 42.9206V57.6273C98.0377 58.9446 96.9704 60.026 95.6461 60.026Z" fill="white" stroke="#263148" stroke-width="0.75" stroke-miterlimit="10"/>
<path d="M62.1627 32.2838H52.3787C51.0544 32.2838 49.9673 31.2024 49.9673 29.8851V15.1785C49.9673 13.8612 51.0544 12.7798 52.3787 12.7798H62.1627C63.487 12.7798 64.5741 13.8612 64.5741 15.1785V29.8851C64.5543 31.2221 63.487 32.2838 62.1627 32.2838Z" fill="#263148" stroke="white" stroke-width="0.75" stroke-miterlimit="10"/>
<path d="M62.1627 88.7115H52.3787C51.0544 88.7115 49.9673 87.6302 49.9673 86.3128V71.6062C49.9673 70.2889 51.0544 69.2075 52.3787 69.2075H62.1627C63.487 69.2075 64.5741 70.2889 64.5741 71.6062V86.3128C64.5543 87.6498 63.487 88.7115 62.1627 88.7115Z" fill="#263148" stroke="white" stroke-width="0.75" stroke-miterlimit="10"/>
<path d="M94.3415 43.2744H85.8818" stroke="#263148" stroke-width="0.75" stroke-miterlimit="10"/>
<path d="M91.9894 45.3782H85.8818" stroke="#263148" stroke-width="0.75" stroke-miterlimit="10"/>
<path d="M90.1113 67.6938L74.7534 59.5541V41.5247L90.1113 49.6644V67.6938Z" stroke="#263148" stroke-width="0.75" stroke-miterlimit="10" stroke-linecap="round" stroke-linejoin="round"/>
<path d="M90.1113 67.6938L105.469 59.5541V41.5247L90.1113 49.6644V67.6938Z" stroke="#263148" stroke-width="0.75" stroke-miterlimit="10" stroke-linecap="round" stroke-linejoin="round"/>
<path d="M57.2612 39.185L41.9033 31.0649V13.0159L57.2612 21.1556V39.185Z" stroke="#263148" stroke-width="0.75" stroke-miterlimit="10" stroke-linecap="round" stroke-linejoin="round"/>
<path d="M57.2612 39.185L72.6191 31.0649V13.0159L57.2612 21.1556V39.185Z" stroke="#263148" stroke-width="0.75" stroke-miterlimit="10" stroke-linecap="round" stroke-linejoin="round"/>
<path d="M57.2612 96.2028L41.9033 88.0631V70.0337L57.2612 78.1735V96.2028Z" stroke="#263148" stroke-width="0.75" stroke-miterlimit="10" stroke-linecap="round" stroke-linejoin="round"/>
<path d="M57.2612 96.2028L72.6191 88.0631V70.0337L57.2612 78.1735V96.2028Z" stroke="#263148" stroke-width="0.75" stroke-miterlimit="10" stroke-linecap="round" stroke-linejoin="round"/>
<path d="M22.1177 30.3963C25.6162 24.4979 30.5971 19.5826 36.5466 16.1418" stroke="#263148" stroke-width="0.75" stroke-miterlimit="10"/>
<path d="M38.2467 85.7822C31.8426 82.4987 26.4466 77.5244 22.6318 71.4688" stroke="#263148" stroke-width="0.75" stroke-miterlimit="10"/>
<path d="M90.9614 70.4858C87.5222 76.3449 82.6006 81.2602 76.7104 84.701" stroke="#263148" stroke-width="0.75" stroke-miterlimit="10"/>
<path d="M75.5049 15.6306C81.1578 18.6781 85.9807 23.0626 89.5582 28.3318" stroke="#263148" stroke-width="0.75" stroke-miterlimit="10"/>
<path d="M61.4909 15.9258H53.0312" stroke="white" stroke-width="0.75" stroke-miterlimit="10"/>
<path d="M59.1388 18.0295H53.0312" stroke="white" stroke-width="0.75" stroke-miterlimit="10"/>
<path d="M61.4909 72.4912H53.0312" stroke="white" stroke-width="0.75" stroke-miterlimit="10"/>
<path d="M59.1388 74.595H53.0312" stroke="white" stroke-width="0.75" stroke-miterlimit="10"/>
<defs>
<linearGradient id="paint0_linear" x1="0" y1="50.5022" x2="113.005" y2="50.5022" gradientUnits="userSpaceOnUse">
<stop stop-color="#C7EAFB"/>
<stop offset="0.2717" stop-color="#B3E4FA"/>
<stop offset="0.7226" stop-color="#98DBF8"/>
<stop offset="1" stop-color="#8ED8F8"/>
</linearGradient>
</defs>
</svg>
