<svg width="89" height="101" viewBox="0 0 89 101" fill="none" xmlns="http://www.w3.org/2000/svg">
<path d="M43.4005 100.692L2.25396 75.75C0.826469 74.8826 0.922921 72.7624 2.44687 72.0492L43.5934 52.4082C44.1721 52.1383 44.828 52.1383 45.4067 52.4082L86.5533 72.0492C88.058 72.7624 88.1737 74.8826 86.7462 75.75L45.5996 100.692C44.9245 101.096 44.0757 101.096 43.4005 100.692Z" fill="url(#paint0_linear)"/>
<path d="M43.4005 92.3071L2.25396 67.3655C0.826469 66.4981 0.922921 64.3779 2.44687 63.6647L43.5934 44.0237C44.1721 43.7538 44.828 43.7538 45.4067 44.0237L86.5533 63.6647C88.058 64.3779 88.1737 66.4981 86.7462 67.3655L45.5996 92.3071C44.9245 92.7311 44.0757 92.7311 43.4005 92.3071Z" fill="#263148"/>
<path d="M43.4005 83.9418L2.25396 59.0002C0.826469 58.1329 0.922921 56.0126 2.44687 55.2995L43.5934 35.6584C44.1721 35.3886 44.828 35.3886 45.4067 35.6584L86.5533 55.2995C88.058 56.0126 88.1737 58.1329 86.7462 59.0002L45.5996 83.9418C44.9245 84.3466 44.0757 84.3466 43.4005 83.9418Z" fill="white" stroke="#263148" stroke-width="0.75" stroke-miterlimit="10"/>
<path d="M44.4998 61.7565C54.7808 61.7565 63.1151 60.1773 63.1151 58.2292C63.1151 56.2811 54.7808 54.7019 44.4998 54.7019C34.2189 54.7019 25.8845 56.2811 25.8845 58.2292C25.8845 60.1773 34.2189 61.7565 44.4998 61.7565Z" fill="url(#paint1_linear)"/>
<path d="M44.5004 0C30.9392 0 19.9436 10.9866 19.9436 24.5368C19.9436 38.087 44.5004 57.4389 44.5004 57.4389C44.5004 57.4389 69.0571 38.087 69.0571 24.5368C69.0571 10.9866 58.0616 0 44.5004 0ZM44.5004 34.2513C38.7518 34.2513 34.1028 29.6061 34.1028 23.8622C34.1028 18.1183 38.7518 13.4731 44.5004 13.4731C50.2489 13.4731 54.8979 18.1183 54.8979 23.8622C54.8979 29.6061 50.2489 34.2513 44.5004 34.2513Z" fill="#263148"/>
<defs>
<linearGradient id="paint0_linear" x1="22.4329" y1="51.8959" x2="66.5331" y2="96.0319" gradientUnits="userSpaceOnUse">
<stop stop-color="#C7EAFB"/>
<stop offset="0.2717" stop-color="#B3E4FA"/>
<stop offset="0.7226" stop-color="#98DBF8"/>
<stop offset="1" stop-color="#8ED8F8"/>
</linearGradient>
<linearGradient id="paint1_linear" x1="25.8874" y1="58.2275" x2="63.1124" y2="58.2275" gradientUnits="userSpaceOnUse">
<stop stop-color="#C7EAFB"/>
<stop offset="0.2717" stop-color="#B3E4FA"/>
<stop offset="0.7226" stop-color="#98DBF8"/>
<stop offset="1" stop-color="#8ED8F8"/>
</linearGradient>
</defs>
</svg>
