<svg width="94" height="94" viewBox="0 0 94 94" fill="none" xmlns="http://www.w3.org/2000/svg">
<path d="M91.8396 60.1796C91.0239 59.364 89.9955 58.9384 88.9317 58.8675C88.0629 58.8143 87.265 58.3888 86.6621 57.7682C85.9174 57.0235 85.9174 55.8355 86.6621 55.0908L92.0878 49.6651C93.524 48.2289 93.524 45.9239 92.0878 44.4877L86.6621 39.062C85.9174 38.3173 85.9174 37.1294 86.6621 36.3847C87.2827 35.7641 88.0806 35.3385 88.9317 35.2854C89.9955 35.2144 91.0417 34.7712 91.8396 33.9733C93.8609 31.9519 93.5772 28.5121 91.0062 26.8809C89.5523 25.9766 87.6373 25.9943 86.2011 26.9164C84.9068 27.7497 84.2153 29.0618 84.1089 30.4093C84.0379 31.2959 83.6301 32.1115 83.0096 32.7321C82.2649 33.4768 81.0769 33.4768 80.3322 32.7321L74.9065 27.3064C73.4703 25.8702 71.1653 25.8702 69.7291 27.3064L64.3034 32.7321C63.5587 33.4768 62.3707 33.4768 61.626 32.7321C61.0055 32.1115 60.5799 31.3136 60.5267 30.4625C60.4558 29.3987 60.0125 28.3526 59.2146 27.5547C57.1933 25.5333 53.7535 25.817 52.1223 28.388C51.218 29.842 51.2357 31.7569 52.1577 33.1931C53.0088 34.4875 54.3032 35.179 55.6507 35.2854C56.5373 35.3563 57.3529 35.7641 57.9735 36.3847C58.7182 37.1294 58.7182 38.3173 57.9735 39.062L52.5478 44.4877C51.1116 45.9239 51.1116 48.2289 52.5478 49.6651L57.9735 55.0908C58.7182 55.8355 58.7182 57.0235 57.9735 57.7682C57.3529 58.3888 56.5373 58.7966 55.6507 58.8675C54.3032 58.9739 52.9911 59.6654 52.1577 60.9597C51.2357 62.3959 51.2003 64.3109 52.1223 65.7648C53.7535 68.3535 57.1933 68.6195 59.2146 66.5982C60.0303 65.7826 60.4558 64.7542 60.5267 63.6903C60.5799 62.8215 61.0055 62.0236 61.626 61.4207C62.3707 60.676 63.5587 60.676 64.3034 61.4207L69.7291 66.8464C71.1653 68.2826 73.4703 68.2826 74.9065 66.8464L80.3322 61.4207C81.0769 60.676 82.2649 60.676 83.0096 61.4207C83.6301 62.0413 84.0379 62.8569 84.1089 63.7435C84.2153 65.091 84.9068 66.4031 86.2011 67.2365C87.6373 68.1762 89.5523 68.194 91.0062 67.2719C93.5772 65.6407 93.8609 62.1832 91.8396 60.1796Z" fill="url(#paint0_linear)"/>
<path d="M41.271 60.3392C40.4553 59.5236 39.4269 59.0981 38.3631 59.0272C37.4943 58.974 36.6964 58.5484 36.0935 57.9278C35.3488 57.1831 35.3488 55.9952 36.0935 55.2505L41.5192 49.8248C42.9554 48.3886 42.9554 46.0836 41.5192 44.6474L36.0935 39.2217C35.3488 38.477 35.3488 37.289 36.0935 36.5443C36.7141 35.9238 37.512 35.4982 38.3631 35.445C39.4269 35.3741 40.4731 34.9308 41.271 34.1329C43.2923 32.1116 43.0086 28.6718 40.4376 27.0406C38.9837 26.1363 37.0687 26.154 35.6325 27.076C34.3382 27.9094 33.6466 29.2215 33.5403 30.569C33.4693 31.4556 33.0615 32.2712 32.4409 32.8918C31.6962 33.6365 30.5083 33.6365 29.7636 32.8918L24.3379 27.4661C22.9017 26.0299 20.5967 26.0299 19.1605 27.4661L13.7348 32.8918C12.9901 33.6365 11.8021 33.6365 11.0574 32.8918C10.4369 32.2712 10.0113 31.4733 9.95813 30.6222C9.88721 29.5584 9.44393 28.5122 8.64604 27.7143C6.62471 25.693 3.18491 25.9767 1.55367 28.5477C0.649392 30.0016 0.667123 31.9166 1.58913 33.3528C2.44022 34.6471 3.73457 35.3386 5.08212 35.445C5.96867 35.5159 6.78429 35.9238 7.40488 36.5443C8.14957 37.289 8.14957 38.477 7.40488 39.2217L1.97921 44.6474C0.543007 46.0836 0.543007 48.3886 1.97921 49.8248L7.40488 55.2505C8.14957 55.9952 8.14957 57.1831 7.40488 57.9278C6.78429 58.5484 5.96867 58.9562 5.08212 59.0272C3.73457 59.1335 2.42248 59.825 1.58913 61.1194C0.667123 62.5556 0.631661 64.4706 1.55367 65.9245C3.18491 68.5132 6.62471 68.7792 8.64604 66.7578C9.46166 65.9422 9.88721 64.9138 9.95813 63.85C10.0113 62.9812 10.4369 62.1833 11.0574 61.5804C11.8021 60.8357 12.9901 60.8357 13.7348 61.5804L19.1605 67.0061C20.5967 68.4423 22.9017 68.4423 24.3379 67.0061L29.7636 61.5804C30.5083 60.8357 31.6962 60.8357 32.4409 61.5804C33.0615 62.201 33.4693 63.0166 33.5403 63.9032C33.6466 65.2507 34.3382 66.5628 35.6325 67.3962C37.0687 68.3359 38.9837 68.3536 40.4376 67.4316C43.0086 65.8004 43.2745 62.3428 41.271 60.3392Z" fill="url(#paint1_linear)"/>
<path d="M66.467 85.5346C65.6514 84.7189 64.623 84.2934 63.5591 84.2225C62.6903 84.1693 61.8924 83.7437 61.2896 83.1231C60.5449 82.3784 60.5449 81.1905 61.2896 80.4458L66.7152 75.0201C68.1514 73.5839 68.1514 71.2789 66.7152 69.8427L61.2896 64.417C60.5449 63.6723 60.5449 62.4844 61.2896 61.7397C61.9101 61.1191 62.708 60.6935 63.5591 60.6403C64.623 60.5694 65.6691 60.1261 66.467 59.3282C68.4883 57.3069 68.2046 53.8671 65.6336 52.2359C64.1797 51.3316 62.2648 51.3493 60.8286 52.2713C59.5342 53.1047 58.8427 54.4168 58.7363 55.7643C58.6654 56.6509 58.2576 57.4665 57.637 58.0871C56.8923 58.8318 55.7043 58.8318 54.9596 58.0871L49.534 52.6614C48.0978 51.2252 45.7927 51.2252 44.3565 52.6614L38.9309 58.0871C38.1862 58.8318 36.9982 58.8318 36.2535 58.0871C35.6329 57.4665 35.2074 56.6686 35.1542 55.8175C35.0833 54.7537 34.64 53.7075 33.8421 52.9096C31.8208 50.8883 28.381 51.172 26.7497 53.743C25.8454 55.1969 25.8632 57.1119 26.7852 58.5481C27.6363 59.8424 28.9306 60.5339 30.2782 60.6403C31.1647 60.7113 31.9803 61.1191 32.6009 61.7397C33.3456 62.4844 33.3456 63.6723 32.6009 64.417L27.1753 69.8427C25.7391 71.2789 25.7391 73.5839 27.1753 75.0201L32.6009 80.4458C33.3456 81.1905 33.3456 82.3784 32.6009 83.1231C31.9803 83.7437 31.1647 84.1515 30.2782 84.2225C28.9306 84.3289 27.6185 85.0204 26.7852 86.3147C25.8632 87.7509 25.8277 89.6659 26.7497 91.1198C28.381 93.7085 31.8208 93.9745 33.8421 91.9532C34.6577 91.1375 35.0833 90.1091 35.1542 89.0453C35.2074 88.1765 35.6329 87.3786 36.2535 86.7757C36.9982 86.031 38.1862 86.031 38.9309 86.7757L44.3565 92.2014C45.7927 93.6376 48.0978 93.6376 49.534 92.2014L54.9596 86.7757C55.7043 86.031 56.8923 86.031 57.637 86.7757C58.2576 87.3963 58.6654 88.2119 58.7363 89.0985C58.8427 90.446 59.5342 91.7581 60.8286 92.5915C62.2648 93.5312 64.1797 93.5489 65.6336 92.6269C68.2046 91.0134 68.4883 87.5559 66.467 85.5346Z" fill="white" stroke="#263148" stroke-width="0.75" stroke-miterlimit="10"/>
<path d="M66.6262 34.966C65.8106 34.1503 64.7822 33.7248 63.7183 33.6539C62.8495 33.6007 62.0516 33.1751 61.4487 32.5545C60.704 31.8098 60.704 30.6219 61.4487 29.8772L66.8744 24.4515C68.3106 23.0153 68.3106 20.7103 66.8744 19.2741L61.4487 13.8484C60.704 13.1037 60.704 11.9157 61.4487 11.171C62.0693 10.5505 62.8672 10.1249 63.7183 10.0717C64.7822 10.0008 65.8283 9.55753 66.6262 8.75964C68.6475 6.73832 68.3638 3.29852 65.7928 1.66727C64.3389 0.762994 62.4239 0.780725 60.9877 1.70273C59.6934 2.55382 59.0019 3.86591 58.8955 5.21346C58.8246 6.1 58.4168 6.91563 57.7962 7.53621C57.0515 8.28091 55.8635 8.28091 55.1188 7.53621L49.6931 2.11054C48.2569 0.674339 45.9519 0.674339 44.5157 2.11054L39.09 7.53621C38.3453 8.28091 37.1574 8.28091 36.4127 7.53621C35.7921 6.91563 35.3665 6.11773 35.3134 5.26665C35.2424 4.20279 34.7992 3.15667 34.0013 2.35878C31.9799 0.337452 28.5401 0.621147 26.9089 3.19213C26.0046 4.64607 26.0223 6.56101 26.9444 7.99721C27.7954 9.29157 29.0898 9.98308 30.4373 10.0895C31.3239 10.1604 32.1395 10.5682 32.7601 11.1888C33.5048 11.9335 33.5048 13.1215 32.7601 13.8661L27.3344 19.2918C25.8982 20.728 25.8982 23.033 27.3344 24.4692L32.7601 29.8949C33.5048 30.6396 33.5048 31.8276 32.7601 32.5723C32.1395 33.1929 31.3239 33.6007 30.4373 33.6716C29.0898 33.778 27.7777 34.4695 26.9444 35.7638C26.0223 37.2001 25.9869 39.115 26.9089 40.5689C28.5401 43.1576 31.9799 43.4236 34.0013 41.4023C34.8169 40.5867 35.2424 39.5583 35.3134 38.4944C35.3665 37.6256 35.7921 36.8277 36.4127 36.2248C37.1574 35.4802 38.3453 35.4802 39.09 36.2248L44.5157 41.6505C45.9519 43.0867 48.2569 43.0867 49.6931 41.6505L55.1188 36.2248C55.8635 35.4802 57.0515 35.4802 57.7962 36.2248C58.4168 36.8454 58.8246 37.6611 58.8955 38.5476C59.0019 39.8952 59.6934 41.2072 60.9877 42.0406C62.4239 42.9803 64.3389 42.9981 65.7928 42.0761C68.3638 40.4271 68.6475 36.9873 66.6262 34.966Z" fill="#263148" stroke="white" stroke-width="0.75" stroke-miterlimit="10"/>
<defs>
<linearGradient id="paint0_linear" x1="52.7914" y1="27.5485" x2="91.8344" y2="66.5915" gradientUnits="userSpaceOnUse">
<stop stop-color="#C7EAFB"/>
<stop offset="0.2717" stop-color="#B3E4FA"/>
<stop offset="0.7226" stop-color="#98DBF8"/>
<stop offset="1" stop-color="#8ED8F8"/>
</linearGradient>
<linearGradient id="paint1_linear" x1="2.21998" y1="27.707" x2="41.263" y2="66.7501" gradientUnits="userSpaceOnUse">
<stop stop-color="#C7EAFB"/>
<stop offset="0.2717" stop-color="#B3E4FA"/>
<stop offset="0.7226" stop-color="#98DBF8"/>
<stop offset="1" stop-color="#8ED8F8"/>
</linearGradient>
</defs>
</svg>
