<svg width="64" height="95" viewBox="0 0 64 95" fill="none" xmlns="http://www.w3.org/2000/svg">
<path d="M46.506 87.9075H6.33113C2.83376 87.9075 0 85.0804 0 81.5913V6.31617C0 2.82707 2.83376 0 6.33113 0H46.4881C49.9854 0 52.8192 2.82707 52.8192 6.31617V81.5913C52.8371 85.0804 50.0034 87.9075 46.506 87.9075Z" fill="url(#paint0_linear)"/>
<path d="M44.1204 82.8261H8.71631C6.47441 82.8261 4.64502 81.001 4.64502 78.7644V9.16128C4.64502 6.92468 6.47441 5.09961 8.71631 5.09961H44.1204C46.3623 5.09961 48.1917 6.92468 48.1917 9.16128V78.7644C48.1917 81.001 46.3803 82.8261 44.1204 82.8261Z" fill="white" stroke="#263148" stroke-width="0.75" stroke-miterlimit="10"/>
<path d="M30.6511 9.28638H22.2036" stroke="#263148" stroke-width="0.75" stroke-miterlimit="10"/>
<path d="M19.5855 28.36H15.3169C13.1826 28.36 11.4429 26.6243 11.4429 24.4951V20.2545C11.4429 18.1253 13.1826 16.3896 15.3169 16.3896H19.5675C21.7018 16.3896 23.4415 18.1253 23.4415 20.2545V24.4951C23.4415 26.6243 21.7197 28.36 19.5855 28.36Z" fill="white" stroke="#263148" stroke-width="0.75" stroke-miterlimit="10"/>
<path d="M29.7368 20.2545C29.7368 18.1253 31.4765 16.3896 33.6108 16.3896H37.8615C39.9958 16.3896 41.7355 18.1253 41.7355 20.2545" fill="white"/>
<path d="M29.7368 20.2545C29.7368 18.1253 31.4765 16.3896 33.6108 16.3896H37.8615C39.9958 16.3896 41.7355 18.1253 41.7355 20.2545" stroke="#263148" stroke-width="0.75" stroke-miterlimit="10"/>
<path d="M19.5855 45.5728H15.3169C13.1826 45.5728 11.4429 43.8372 11.4429 41.708V37.4674C11.4429 35.3381 13.1826 33.6025 15.3169 33.6025H19.5675C21.7018 33.6025 23.4415 35.3381 23.4415 37.4674V41.708C23.4415 43.8551 21.7197 45.5728 19.5855 45.5728Z" fill="white" stroke="#263148" stroke-width="0.75" stroke-miterlimit="10"/>
<path d="M22.957 76.438V49.7777H27.6919C29.7903 49.7777 31.5121 51.4775 31.5121 53.5889V67.7958V26.6423C31.5121 24.2804 33.4312 22.3838 35.7807 22.3838C38.1482 22.3838 40.0493 24.2983 40.0493 26.6423V58.6705V51.567C40.0493 49.4735 41.7531 47.7558 43.8695 47.7558H44.1744C46.2728 47.7558 47.9946 49.4556 47.9946 51.567V58.42V51.567C47.9946 49.4735 49.6984 47.7558 51.8148 47.7558C53.9132 47.7558 55.635 49.4556 55.635 51.567V57.4001V54.3583C55.635 52.2648 57.3388 50.5471 59.4552 50.5471H59.4193C61.5177 50.5471 63.2395 52.2469 63.2395 54.3583V76.438C63.2395 85.9749 56.5497 93.6867 47.0081 93.6867H40.2824C30.705 93.6867 22.957 85.957 22.957 76.438Z" fill="#263148" stroke="white" stroke-width="0.75" stroke-miterlimit="10"/>
<defs>
<linearGradient id="paint0_linear" x1="0" y1="43.9552" x2="52.8405" y2="43.9552" gradientUnits="userSpaceOnUse">
<stop stop-color="#C7EAFB"/>
<stop offset="0.2717" stop-color="#B3E4FA"/>
<stop offset="0.7226" stop-color="#98DBF8"/>
<stop offset="1" stop-color="#8ED8F8"/>
</linearGradient>
</defs>
</svg>
