<svg width="100" height="89" viewBox="0 0 100 89" fill="none" xmlns="http://www.w3.org/2000/svg">
<path d="M93.3394 0H6.6606C2.98453 0 0 2.80942 0 6.26981V73.4047C0 76.8651 2.98453 79.6745 6.6606 79.6745H33.4668L30.828 84.8822C29.3722 88.8908 31.7561 87.4689 35.869 87.9657C36.1237 88 36.3785 88.0171 36.6515 88.0171H63.3303C63.5851 88.0171 63.858 88 64.1128 87.9657C68.2257 87.4689 70.6278 88.8908 69.1538 84.8822L66.515 79.6745H93.3212C96.9973 79.6745 99.9818 76.8651 99.9818 73.4047V6.26981C100 2.80942 97.0155 0 93.3394 0Z" fill="url(#paint0_linear)"/>
<path d="M95.4686 62.0127H4.54956V7.14329C4.54956 5.51588 5.95083 4.17969 7.69788 4.17969H92.3203C94.0491 4.17969 95.4686 5.49875 95.4686 7.14329V62.0127Z" fill="white" stroke="#263148" stroke-width="0.75" stroke-miterlimit="10"/>
<path d="M95.4686 66.1926H4.54956" stroke="#263148" stroke-width="0.75" stroke-miterlimit="10"/>
<path d="M50.082 75.0835C51.5494 75.0835 52.739 73.9637 52.739 72.5824C52.739 71.2011 51.5494 70.0813 50.082 70.0813C48.6146 70.0813 47.425 71.2011 47.425 72.5824C47.425 73.9637 48.6146 75.0835 50.082 75.0835Z" fill="white" stroke="#263148" stroke-width="0.75" stroke-miterlimit="10"/>
<path d="M91.1374 62.0128H8.68066V9.93568C8.68066 9.23332 9.29941 8.65088 10.0455 8.65088H89.7726C90.5187 8.65088 91.1374 9.23332 91.1374 9.93568V62.0128Z" fill="white" stroke="#263148" stroke-width="0.75" stroke-miterlimit="10"/>
<path d="M91.2829 15.8115H8.49854" stroke="#263148" stroke-width="0.75" stroke-miterlimit="10"/>
<path d="M77.2519 13.3446H12.8115C12.211 13.3446 11.7378 12.882 11.7378 12.3339V11.957C11.7378 11.3917 12.2291 10.9463 12.8115 10.9463H77.2337C77.8342 10.9463 78.3074 11.4088 78.3074 11.957V12.3167C78.3256 12.8821 77.8342 13.3446 77.2519 13.3446Z" fill="white" stroke="#263148" stroke-width="0.75" stroke-miterlimit="10"/>
<path d="M87.4432 13.3446H87.061C86.4605 13.3446 85.9873 12.882 85.9873 12.3339V11.957C85.9873 11.3917 86.4787 10.9463 87.061 10.9463H87.4432C88.0437 10.9463 88.5169 11.4088 88.5169 11.957V12.3167C88.5169 12.8821 88.0255 13.3446 87.4432 13.3446Z" fill="white" stroke="#263148" stroke-width="0.75" stroke-miterlimit="10"/>
<path d="M60.1819 56.4798H15.9235C15.141 56.4798 14.5222 55.8973 14.5222 55.1607V22.6125C14.5222 21.8759 15.141 21.2935 15.9235 21.2935H60.1819C60.9644 21.2935 61.5832 21.8759 61.5832 22.6125V55.1607C61.5832 55.8802 60.9644 56.4798 60.1819 56.4798Z" fill="#263148"/>
<path d="M84.5679 56.4798H65.496C64.7135 56.4798 64.0947 55.8973 64.0947 55.1607V22.6125C64.0947 21.8759 64.7135 21.2935 65.496 21.2935H84.5679C85.3504 21.2935 85.9692 21.8759 85.9692 22.6125V55.1607C85.9692 55.8802 85.3504 56.4798 84.5679 56.4798Z" fill="white" stroke="#263148" stroke-width="0.75" stroke-miterlimit="10"/>
<path d="M80.6003 26.4668H69.4629" stroke="#263148" stroke-width="0.75" stroke-miterlimit="10"/>
<path d="M80.6003 29.79H69.4629" stroke="#263148" stroke-width="0.75" stroke-miterlimit="10"/>
<path d="M74.9952 33.0964H69.4629" stroke="#263148" stroke-width="0.75" stroke-miterlimit="10"/>
<defs>
<linearGradient id="paint0_linear" x1="0" y1="44.0019" x2="100.005" y2="44.0019" gradientUnits="userSpaceOnUse">
<stop stop-color="#C7EAFB"/>
<stop offset="0.2717" stop-color="#B3E4FA"/>
<stop offset="0.7226" stop-color="#98DBF8"/>
<stop offset="1" stop-color="#8ED8F8"/>
</linearGradient>
</defs>
</svg>
