<svg width="119.000000" height="82.000000" viewBox="0 0 119 82" fill="none" xmlns="http://www.w3.org/2000/svg" xmlns:xlink="http://www.w3.org/1999/xlink">
	<desc>
			Created with Pixso.
	</desc>
	<defs>
		<clipPath id="clip114_240">
			<rect id="icon 5@2x" width="80.384613" height="76.000000" transform="translate(0.000000 3.000000)" fill="white" fill-opacity="0"/>
		</clipPath>
	</defs>
	<path id="path" d="M78 82C100.64 82 119 63.64 119 41C119 18.35 100.64 0 78 0C55.35 0 37 18.35 37 41C37 63.64 55.35 82 78 82Z" fill="#EEF8FD" fill-opacity="1.000000" fill-rule="evenodd"/>
	<g clip-path="url(#clip114_240)">
		<path id="path" d="" fill="#000000" fill-opacity="0" fill-rule="nonzero"/>
		<path id="path" d="M36.32 58.53L36.32 64.38L45.09 64.38L45.09 58.53" stroke="#8ED8F8" stroke-opacity="1.000000" stroke-width="2.000000"/>
		<rect id="rect" x="20.250488" y="64.384613" rx="1.000000" width="40.923077" height="8.769231" fill="#000000" fill-opacity="0"/>
		<rect id="rect" x="20.250488" y="64.384613" rx="1.000000" width="40.923077" height="8.769231" stroke="#8ED8F8" stroke-opacity="1.000000" stroke-width="2.000000"/>
		<rect id="rect" x="17.327148" y="73.153847" rx="1.000000" width="46.769230" height="4.384615" fill="#000000" fill-opacity="0"/>
		<rect id="rect" x="17.327148" y="73.153847" rx="1.000000" width="46.769230" height="4.384615" stroke="#8ED8F8" stroke-opacity="1.000000" stroke-width="2.000000"/>
		<path id="path" d="" fill="#000000" fill-opacity="0" fill-rule="nonzero"/>
		<path id="path" d="M55.32 49.45C62.47 46.12 77.24 36.96 79.12 27.02C81.46 14.59 69.21 10.3 64.82 15.42" stroke="#8ED8F8" stroke-opacity="1.000000" stroke-width="2.000000"/>
		<path id="path" d="" fill="#000000" fill-opacity="0" fill-rule="nonzero"/>
		<path id="path" d="M26.32 49.45C19.17 46.12 4.4 36.96 2.52 27.02C0.18 14.59 12.44 10.3 16.82 15.42" stroke="#8ED8F8" stroke-opacity="1.000000" stroke-width="2.000000"/>
		<path id="path" d="" fill="#000000" fill-opacity="0" fill-rule="nonzero"/>
		<path id="path" d="M41.18 4.46L17.37 4.46C16.55 4.46 15.88 5.13 15.92 5.96C16.81 24.9 22.92 60 41.18 60M40.24 4.46L64.04 4.46C64.87 4.46 65.53 5.13 65.49 5.96C64.61 24.9 58.5 60 40.24 60" stroke="#263148" stroke-opacity="1.000000" stroke-width="2.000000"/>
	</g>
</svg>
