<svg width="124" height="82" viewBox="0 0 124 82" fill="none" xmlns="http://www.w3.org/2000/svg">
<path fill-rule="evenodd" clip-rule="evenodd" d="M83 82C105.644 82 124 63.6437 124 41C124 18.3563 105.644 0 83 0C60.3563 0 42 18.3563 42 41C42 63.6437 60.3563 82 83 82Z" fill="#EEF8FD"/>
<path fill-rule="evenodd" clip-rule="evenodd" d="M50.95 30.3931C51.0423 30.8728 51.4628 31.2072 51.9345 31.2072C51.9968 31.2072 52.06 31.2012 52.1242 31.1892C52.6682 31.0861 53.0255 30.5613 52.9221 30.0186L49.7266 13.2874C49.7236 13.2714 49.7115 13.2593 49.7075 13.2433C49.6844 13.1502 49.6423 13.0681 49.5951 12.985C49.574 12.9469 49.561 12.9048 49.5349 12.8698C49.4626 12.7757 49.3693 12.6976 49.2619 12.6315C49.2469 12.6225 49.2378 12.6054 49.2218 12.5964C49.2208 12.5964 49.2188 12.5964 49.2178 12.5954C49.2158 12.5944 49.2158 12.5934 49.2148 12.5924C49.0873 12.5233 48.9508 12.4893 48.8143 12.4793C48.7812 12.4763 48.7481 12.4883 48.714 12.4893C48.6086 12.4933 48.5042 12.5043 48.4058 12.5393C48.3928 12.5443 48.3787 12.5403 48.3667 12.5463L32.0811 19.0714C31.5683 19.2777 31.3174 19.8605 31.5251 20.3742C31.7309 20.8869 32.317 21.1373 32.8298 20.93L46.5562 15.4293L18.1189 68.527C17.857 69.0136 18.0426 69.6205 18.5304 69.8818C18.6819 69.9619 18.8435 70 19.0031 70C19.3614 70 19.7086 69.8077 19.8893 69.4703L48.2874 16.4478L50.95 30.3931ZM89.7867 36.4335C89.7837 36.4164 89.7716 36.4044 89.7676 36.3884C89.7445 36.2963 89.7024 36.2132 89.6552 36.13C89.6342 36.092 89.6211 36.0499 89.595 36.0149C89.5228 35.9208 89.4294 35.8426 89.322 35.7766C89.307 35.7675 89.2979 35.7505 89.2819 35.7415C89.2809 35.7415 89.2789 35.7415 89.2779 35.7405C89.2759 35.7395 89.2759 35.7385 89.2749 35.7375C89.1464 35.6694 89.0109 35.6344 88.8744 35.6253C88.8413 35.6223 88.8092 35.6344 88.7751 35.6354C88.6687 35.6384 88.5653 35.6494 88.466 35.6854C88.4529 35.6894 88.4389 35.6864 88.4268 35.6914L72.1422 42.2175C71.6284 42.4228 71.3785 43.0066 71.5862 43.5193C71.792 44.033 72.3781 44.2833 72.8909 44.0751L86.6163 38.5744L70.5756 68.527C70.3137 69.0136 70.4993 69.6205 70.9871 69.8818C71.1376 69.9619 71.2992 70 71.4598 70C71.8181 70 72.1653 69.8077 72.345 69.4703L88.3475 39.5928L91.0101 53.5382C91.1024 54.0188 91.5229 54.3523 91.9946 54.3523C92.0569 54.3523 92.1201 54.3463 92.1843 54.3353C92.7283 54.2311 93.0856 53.7074 92.9822 53.1637L89.7867 36.4335ZM78.9296 3.66303L43.6859 69.4703C43.5052 69.8077 43.158 70 42.7997 70C42.6401 70 42.4785 69.9619 42.327 69.8818C41.8392 69.6205 41.6536 69.0136 41.9155 68.527L76.9716 3.07121L63.5323 8.45568C63.0174 8.66297 62.4323 8.41362 62.2266 7.89991C62.0198 7.3872 62.2697 6.80339 62.7836 6.5981L79.0691 0.0720554C79.3492 -0.0390987 79.6623 -0.0210737 79.9242 0.122125C80.1882 0.266325 80.3728 0.519676 80.429 0.814084L83.6245 17.5443C83.7279 18.088 83.3706 18.6118 82.8267 18.7159C82.7624 18.7279 82.6992 18.7329 82.637 18.7329C82.1653 18.7329 81.7448 18.3995 81.6524 17.9188L78.9296 3.66303Z" fill="#8ED8F8"/>
<path fill-rule="evenodd" clip-rule="evenodd" d="M103 68.9531C103 68.427 102.555 68 102.003 68H0.996575C0.446466 68 0 68.427 0 68.9531C0 69.4792 0.446466 69.9061 0.996575 69.9061H102.003C102.555 69.9061 103 69.4792 103 68.9531ZM102.003 76H0.996575C0.446466 76 0 75.573 0 75.0469C0 74.5199 0.446466 74.0939 0.996575 74.0939H102.003C102.555 74.0939 103 74.5199 103 75.0469C103 75.573 102.555 76 102.003 76Z" fill="#263148"/>
</svg>
