<svg width="118.000000" height="82.000000" viewBox="0 0 118 82" fill="none" xmlns="http://www.w3.org/2000/svg" xmlns:xlink="http://www.w3.org/1999/xlink">
	<desc>
			Created with Pixso.
	</desc>
	<defs>
		<clipPath id="clip114_248">
			<rect id="icon 7@2x" width="83.242416" height="82.000000" transform="translate(0.000000 -0.999977)" fill="white" fill-opacity="0"/>
		</clipPath>
	</defs>
	<path id="path" d="M77 81C99.64 81 118 62.64 118 40C118 17.35 99.64 -1 77 -1C54.35 -1 36 17.35 36 40C36 62.64 54.35 81 77 81Z" fill="#EEF8FD" fill-opacity="1.000000" fill-rule="evenodd"/>
	<g clip-path="url(#clip114_248)">
		<path id="path" d="M41.41 61.54C41.41 61.54 73.98 40.43 60.22 24.56C50.25 13.08 41.41 32.55 41.41 32.55C41.41 32.55 32.58 13.08 22.61 24.56C8.84 40.43 41.41 61.54 41.41 61.54Z" fill="#000000" fill-opacity="0" fill-rule="nonzero"/>
		<path id="path" d="M60.22 24.56C50.25 13.08 41.41 32.55 41.41 32.55C41.41 32.55 32.58 13.08 22.61 24.56C8.84 40.43 41.41 61.54 41.41 61.54C41.41 61.54 73.98 40.43 60.22 24.56Z" stroke="#263148" stroke-opacity="1.000000" stroke-width="2.000000"/>
		<path id="path" d="" fill="#93047C" fill-opacity="0" fill-rule="nonzero"/>
		<path id="path" d="M41.41 -1L41.41 12.66" stroke="#8ED8F8" stroke-opacity="1.000000" stroke-width="2.000000"/>
		<path id="path" d="" fill="#93047C" fill-opacity="0" fill-rule="nonzero"/>
		<path id="path" d="M41.41 67.33L41.41 81" stroke="#8ED8F8" stroke-opacity="1.000000" stroke-width="2.000000"/>
		<path id="path" d="" fill="#93047C" fill-opacity="0" fill-rule="nonzero"/>
		<path id="path" d="M0.41 40L14.08 40" stroke="#8ED8F8" stroke-opacity="1.000000" stroke-width="2.000000"/>
		<path id="path" d="" fill="#93047C" fill-opacity="0" fill-rule="nonzero"/>
		<path id="path" d="M68.75 40L82.41 40" stroke="#8ED8F8" stroke-opacity="1.000000" stroke-width="2.000000"/>
		<path id="path" d="" fill="#93047C" fill-opacity="0" fill-rule="nonzero"/>
		<path id="path" d="M11.59 10.18L19.05 17.63" stroke="#8ED8F8" stroke-opacity="1.000000" stroke-width="2.000000"/>
		<path id="path" d="" fill="#93047C" fill-opacity="0" fill-rule="nonzero"/>
		<path id="path" d="M63.78 62.36L71.23 69.81" stroke="#8ED8F8" stroke-opacity="1.000000" stroke-width="2.000000"/>
		<path id="path" d="" fill="#93047C" fill-opacity="0" fill-rule="nonzero"/>
		<path id="path" d="M11.59 69.81L19.05 62.36" stroke="#8ED8F8" stroke-opacity="1.000000" stroke-width="2.000000"/>
		<path id="path" d="" fill="#93047C" fill-opacity="0" fill-rule="nonzero"/>
		<path id="path" d="M63.78 17.63L71.23 10.18" stroke="#8ED8F8" stroke-opacity="1.000000" stroke-width="2.000000"/>
	</g>
</svg>
