<svg width="123" height="84" viewBox="0 0 123 84" fill="none" xmlns="http://www.w3.org/2000/svg">
<g clip-path="url(#clip0)">
<path fill-rule="evenodd" clip-rule="evenodd" d="M81.7749 84.4C104.375 84.4 122.775 66 122.775 43.4C122.775 20.8 104.375 2.40002 81.7749 2.40002C59.1749 2.40002 40.7749 20.8 40.7749 43.4C40.7749 66 59.1749 84.4 81.7749 84.4Z" fill="#EEF8FD"/>
<path d="M36.175 75.8H33.875V78.1H36.175V75.8Z" fill="#263148"/>
<path d="M57.7751 75.8H55.4751V78.1H57.7751V75.8Z" fill="#263148"/>
<path d="M31.475 44.0001V39.8001C31.475 36.6001 28.875 34.0001 25.675 34.0001C24.675 34.0001 23.675 34.2001 22.775 34.8001L22.475 34.9001C22.475 34.9001 21.475 35.6001 20.875 36.5001C20.875 36.6001 20.775 36.8001 20.775 36.8001C20.175 37.7001 19.975 38.7001 19.975 39.7001V44.5001L14.175 50.4001L15.775 52.0001L19.975 47.8001V54.8001H22.275V40.0001C22.275 38.0001 23.775 36.4001 25.775 36.4001C27.775 36.4001 29.275 38.0001 29.275 39.9001V55.3001C29.275 55.9001 29.775 56.4001 30.375 56.4001C33.975 56.4001 36.975 59.3001 36.975 63.0001V69.6001H14.575V67.6001C14.575 67.3001 14.475 67.0001 14.275 66.8001L4.075 56.6001C1.675 54.2001 1.675 50.3001 4.075 47.8001L18.075 33.8001C18.075 33.8001 17.075 31.9001 16.375 32.3001V32.4001L2.475 46.2001C-0.825 49.5001 -0.825 54.9001 2.475 58.2001L12.275 68.0001V69.5001H10.375C9.775 69.5001 9.275 70.0001 9.275 70.6001V85.5001H11.575V71.9001H40.175V85.8001H42.475V70.7001C42.475 70.1001 41.975 69.6001 41.375 69.6001H39.475V63.0001C39.475 58.7001 36.375 55.1001 32.075 54.3001L31.775 54.2001V47.2001V44.0001H31.475Z" fill="#263148"/>
<path d="M89.075 46.2L75.075 32.3L73.475 33.9L73.775 34.2L87.475 47.9C89.975 50.4 89.975 54.4 87.475 56.7L77.375 66.9C77.175 67.1 77.075 67.4001 77.075 67.7001V69.7001H54.575V63.1C54.575 59.5001 57.475 56.5 61.175 56.5C61.775 56.5 62.275 56 62.275 55.4V40C62.275 38.1 63.875 36.5 65.775 36.5C67.675 36.5 69.275 38.1 69.275 40V54.9H71.575V47.9L75.775 52.1L77.375 50.5L71.575 44.7V39.9C71.575 38.9 71.375 37.9 70.775 37C70.775 37 70.675 36.8 70.675 36.7C70.375 36 69.075 35.1 69.075 35.1L68.875 35C67.975 34.4 66.975 34.2 65.975 34.2C62.775 34.2 60.175 36.8 60.175 40V44.2V47.4V54.4H59.775C55.475 55.1 52.375 58.8 52.375 63.1V69.7001H50.475C49.875 69.7001 49.375 70.2 49.375 70.8V85.7001H51.675V71.9H80.275V85.8H82.575V70.7001C82.575 70.1001 82.075 69.6 81.475 69.6H79.575V68.1L79.675 68L89.375 58.3001C92.375 54.9001 92.375 49.6 89.075 46.2Z" fill="#263148"/>
<path d="M63.8749 2.3V0C63.0749 0 62.2749 0.1 61.4749 0.2L61.7749 2.5C62.4749 2.3 63.1749 2.3 63.8749 2.3Z" fill="#8ED8F8"/>
<path d="M27.375 2.3C32.475 2.3 37.375 4.3 40.975 8L45.075 12.1C45.575 12.6 46.1749 12.6 46.6749 12.1L50.775 8C52.775 6 55.375 4.4 58.175 3.4L57.475 1.2C54.375 2.2 51.575 4 49.375 6.3L45.775 9.6L42.475 6.3C34.075 -2.1 20.475 -2.1 12.175 6.3C11.575 6.9 11.075 7.5 10.575 8.1L12.375 9.5C12.875 9 13.275 8.4 13.875 7.9C17.375 4.2 22.275 2.3 27.375 2.3Z" fill="#8ED8F8"/>
<path d="M60.175 47.2V44L53.075 51.1C51.175 53 48.575 54 45.875 54C43.175 54 40.575 53 38.675 51.1L31.575 44V47.2L37.075 52.7C41.975 57.6 49.775 57.6 54.575 52.7L60.175 47.2Z" fill="#8ED8F8"/>
<path d="M75.3749 31.9C78.1749 29 79.6749 25 79.5749 20.9C79.4749 16.8 77.7749 13 74.7749 10.3C68.7749 4.69998 59.3749 4.79998 53.4749 10.6L45.7749 18.3L38.0749 10.6C35.2749 7.79998 31.3749 6.09998 27.2749 6.09998C23.1749 6.09998 19.3749 7.69998 16.4749 10.5C10.5749 16.4 10.4749 25.8 16.1749 31.8L16.2749 31.9L20.8749 36.5C21.3749 35.8 21.7749 35.4 22.4749 34.9L17.9749 30.4C12.8749 25.5 12.8749 17.3 17.8749 12.2C22.9749 7.09998 31.2749 6.99998 36.2749 12.1L44.8749 20.7C45.3749 21.2 45.9749 21.2 46.4749 20.7L54.9749 12.2C57.5749 9.69998 60.7749 8.39998 64.1749 8.39998C67.6749 8.39998 70.9749 9.79998 73.4749 12.1C75.9749 14.6 77.2749 17.9 77.2749 21.3C77.2749 24.8 75.8749 28.1 73.5749 30.6L69.0749 35.1C69.7749 35.6 70.2749 36.2 70.6749 36.7L73.5749 33.8L75.3749 31.9Z" fill="#8ED8F8"/>
</g>
<defs>
<clipPath id="clip0">
<rect width="123" height="84" fill="white"/>
</clipPath>
</defs>
</svg>
