<svg width="108" height="82" viewBox="0 0 108 82" fill="none" xmlns="http://www.w3.org/2000/svg">
<path fill-rule="evenodd" clip-rule="evenodd" d="M67 82C89.6437 82 108 63.6437 108 41C108 18.3563 89.6437 0 67 0C44.3563 0 26 18.3563 26 41C26 63.6437 44.3563 82 67 82Z" fill="#EEF8FD"/>
<path fill-rule="evenodd" clip-rule="evenodd" d="M19.9946 30.7889C19.4133 30.8362 18.8663 30.9147 18.3132 30.9901L3.44288 13.6028C2.69167 12.7273 2.58809 11.4755 3.18544 10.4884C3.57965 9.83733 4.20716 9.39859 4.95233 9.25168C5.69449 9.10778 6.44369 9.27482 7.05411 9.72865L21.0103 20.1053C21.0656 20.1536 21.1199 20.1999 21.1842 20.2341L38.4882 33.1003C32.4936 31.0767 26.2215 30.2837 19.9946 30.7889ZM14.0302 6.55689C13.2015 5.33024 13.4248 3.67795 14.5481 2.71394C15.1756 2.17659 15.9751 1.93508 16.7896 2.0337C17.6082 2.13231 18.3242 2.55495 18.818 3.24122L40.3928 32.0095L22.3498 18.5939L14.0302 6.55689ZM17.8335 43.0473C21.0425 42.5351 24.2635 44.3484 25.4863 47.3622C26.4015 49.6172 26.1249 52.148 24.7442 54.1313C23.3393 56.1509 21.0787 57.28 18.5073 57.1824C16.4819 57.118 14.5853 56.1177 13.3071 54.4383C12.5539 53.4491 11.5573 52.7427 10.4632 52.3724C11.2144 51.4818 11.7192 50.3649 11.8832 49.1332C12.3005 45.9967 14.6919 43.5504 17.8335 43.0473ZM46.8832 36.8527C46.8772 36.7772 29.2625 13.8161 29.2625 13.8161L20.4381 2.0498C19.6366 0.933846 18.3936 0.199268 17.029 0.0352459C15.6714 -0.129782 14.2836 0.289832 13.2398 1.18642C11.3401 2.81557 10.963 5.60898 12.3709 7.69297L17.3196 14.8536L8.25383 8.11258C7.19791 7.32769 5.84936 7.02279 4.56517 7.27738C3.27494 7.52995 2.14561 8.32088 1.4648 9.44589C0.416932 11.1797 0.598951 13.3764 1.91532 14.913L16.0083 31.3906C5.3928 33.693 0.759852 41.234 0.03278 48.0605C-0.171363 49.9734 0.586884 51.8622 2.05913 53.113C2.60318 53.5739 3.21661 53.9261 3.86826 54.1615C3.39763 54.6969 3.02554 55.3238 2.78017 56.0141C2.15265 57.7801 2.41311 59.6648 3.49216 61.1863C7.95515 67.4725 14.704 69 20.2078 69C20.9168 69 21.6056 68.9748 22.2653 68.9306C28.8944 68.4908 36.1792 65.9339 41.8037 62.0779L46.6237 66.1231C47.0511 66.4823 47.6847 66.424 48.0417 65.9983C48.3977 65.5726 48.3414 64.9377 47.917 64.5815L42.5027 60.0382C42.1477 59.7403 41.6368 59.7232 41.2637 59.9959C41.1239 60.0985 40.9811 60.2002 40.8393 60.2998C30.8695 67.227 12.9159 70.9834 5.13234 60.02C4.43645 59.0419 4.27052 57.8274 4.67579 56.6893C5.08508 55.5371 5.99216 54.6898 7.16674 54.3658L7.71481 54.2139C9.16392 53.8114 10.7317 54.3769 11.7072 55.6579C13.3534 57.8213 15.8102 59.1104 18.4449 59.1939C21.6921 59.2875 24.5923 57.8696 26.3944 55.2815C28.1654 52.7377 28.5224 49.4934 27.3498 46.6044C25.778 42.7313 21.6428 40.3988 17.5147 41.0609C13.4881 41.7049 10.424 44.8425 9.88899 48.8685C9.66272 50.5681 8.5535 51.8934 6.99377 52.3241C5.63114 52.7004 4.34795 52.4177 3.36042 51.5774C2.38093 50.7473 1.89823 49.5428 2.03298 48.2728C3.14119 37.8579 12.1225 33.4485 20.1575 32.7944C28.816 32.093 37.567 34.017 45.4673 38.3681C49.6034 40.6463 54.0544 43.2375 59.4727 46.5229C59.9474 46.8097 60.5658 46.6588 60.8544 46.1828C61.1421 45.7079 60.9902 45.089 60.5155 44.8012C55.2641 41.6184 50.9198 39.0856 46.8832 36.8527Z" fill="#263148"/>
<path fill-rule="evenodd" clip-rule="evenodd" d="M67.0421 52.3809C67.8116 51.207 67.4919 49.6266 66.3282 48.8493C65.1645 48.0731 63.5976 48.3956 62.8281 49.5685C62.0576 50.7423 62.3773 52.3238 63.541 53.1C64.7047 53.8772 66.2726 53.5547 67.0421 52.3809ZM47.0635 67.2152L57.1099 73.9187L72.937 49.7848L62.8897 43.0803L47.0635 67.2152ZM57.1625 76C56.815 76 56.4744 75.8968 56.1795 75.6995L45.8015 68.7746C45.4044 68.5102 45.1323 68.1036 45.037 67.6319C44.9407 67.1591 45.034 66.6774 45.2981 66.2757L61.3437 41.8083C61.6048 41.4076 62.008 41.1332 62.4756 41.0371C62.9423 40.9409 63.4219 41.0331 63.82 41.2995L74.198 48.2254C74.5952 48.4898 74.8682 48.8964 74.9636 49.3682C75.0589 49.8399 74.9656 50.3216 74.7024 50.7243L58.6569 75.1907C58.3937 75.5914 57.9916 75.8668 57.523 75.9629C57.4028 75.987 57.2817 76 57.1625 76Z" fill="#8ED8F8"/>
</svg>
