<svg width="144" height="82" viewBox="0 0 144 82" fill="none" xmlns="http://www.w3.org/2000/svg">
<path fill-rule="evenodd" clip-rule="evenodd" d="M103 82C125.644 82 144 63.6437 144 41C144 18.3563 125.644 0 103 0C80.3563 0 62 18.3563 62 41C62 63.6437 80.3563 82 103 82Z" fill="#EEF8FD"/>
<path fill-rule="evenodd" clip-rule="evenodd" d="M35.9907 34.5255C35.9907 16.5864 50.5739 1.99224 68.5005 1.99224C86.4261 1.99224 101.009 16.5864 101.009 34.5255C101.009 52.4647 86.4261 67.0598 68.5005 67.0598C50.5739 67.0598 35.9907 52.4647 35.9907 34.5255ZM88.9414 62.3173C97.4618 56.0248 103 45.9112 103 34.5255C103 15.4877 87.523 0 68.5005 0C49.477 0 34 15.4877 34 34.5255C34 45.9112 39.5382 56.0248 48.0586 62.3163L39.4755 74.4281C39.158 74.8764 39.2625 75.498 39.7114 75.8167C39.8856 75.9412 40.0867 76 40.2858 76C40.5983 76 40.9049 75.8546 41.099 75.5806L49.696 63.4499C55.1098 66.9871 61.5668 69.0521 68.5005 69.0521C75.4342 69.0521 81.8902 66.9871 87.305 63.4499L95.901 75.5806C96.0951 75.8546 96.4017 76 96.7142 76C96.9133 76 97.1144 75.9412 97.2886 75.8167C97.7375 75.498 97.843 74.8764 97.5245 74.4281L88.9414 62.3173ZM68.5005 58.4145C55.3377 58.4145 44.6295 47.6982 44.6295 34.5255C44.6295 21.3528 55.3377 10.6366 68.5005 10.6366C81.6633 10.6366 92.3714 21.3528 92.3714 34.5255C92.3714 47.6982 81.6633 58.4145 68.5005 58.4145ZM68.5005 8.64433C54.2398 8.64433 42.6388 20.2541 42.6388 34.5255C42.6388 48.7969 54.2398 60.4067 68.5005 60.4067C82.7602 60.4067 94.3622 48.7969 94.3622 34.5255C94.3622 20.2541 82.7602 8.64433 68.5005 8.64433ZM68.5005 49.806C60.0817 49.806 53.2315 42.9507 53.2315 34.5255C53.2315 26.1003 60.0817 19.246 68.5005 19.246C76.9193 19.246 83.7685 26.1003 83.7685 34.5255C83.7685 42.9507 76.9193 49.806 68.5005 49.806ZM68.5005 17.2538C58.9838 17.2538 51.2408 25.0016 51.2408 34.5255C51.2408 44.0494 58.9838 51.7983 68.5005 51.7983C78.0172 51.7983 85.7592 44.0494 85.7592 34.5255C85.7592 25.0016 78.0172 17.2538 68.5005 17.2538ZM68.5005 41.1457C64.8535 41.1457 61.8863 38.1763 61.8863 34.5255C61.8863 30.8748 64.8535 27.9053 68.5005 27.9053C72.1475 27.9053 75.1157 30.8748 75.1157 34.5255C75.1157 38.1763 72.1475 41.1457 68.5005 41.1457ZM68.5005 25.9131C63.7556 25.9131 59.8955 29.777 59.8955 34.5255C59.8955 39.274 63.7556 43.138 68.5005 43.138C73.2464 43.138 77.1065 39.274 77.1065 34.5255C77.1065 29.777 73.2464 25.9131 68.5005 25.9131Z" fill="#8ED8F8"/>
<path fill-rule="evenodd" clip-rule="evenodd" d="M15.6474 40.9427H3.25409L7.49457 36.1048H19.2036L15.6474 40.9427ZM15.6474 29.0573L19.3159 34.0474H7.66917C7.64007 34.031 7.61298 34.0094 7.58287 33.996L3.25409 29.0573H15.6474ZM68.9966 34.0474H21.8295L16.9489 27.4094C16.7582 27.1522 16.4622 27 16.1471 27H1.00341C0.608058 27 0.247828 27.2397 0.0872795 27.61C-0.0742722 27.9803 -0.00804603 28.4144 0.256858 28.7169L5.76366 35L0.256858 41.2842C-0.00804603 41.5856 -0.0742722 42.0197 0.0872795 42.39C0.247828 42.7613 0.608058 43 1.00341 43H16.1471C16.4622 43 16.7582 42.8488 16.9489 42.5906L21.7171 36.1048H68.9966C69.5515 36.1048 70 35.645 70 35.0761C70 34.5083 69.5515 34.0474 68.9966 34.0474Z" fill="#263148"/>
</svg>
