<svg width="124" height="82" viewBox="0 0 124 82" fill="none" xmlns="http://www.w3.org/2000/svg">
<path fill-rule="evenodd" clip-rule="evenodd" d="M83 82C105.644 82 124 63.6437 124 41C124 18.3563 105.644 0 83 0C60.3563 0 42 18.3563 42 41C42 63.6437 60.3563 82 83 82Z" fill="#EEF8FD"/>
<path fill-rule="evenodd" clip-rule="evenodd" d="M88.2036 51.1684L58.7226 21.592C58.3336 21.2017 57.7021 21.2017 57.3121 21.592C56.923 21.9834 56.923 22.6169 57.3121 23.0072L86.7931 52.5835C88.4101 54.2068 88.4101 56.8479 86.7931 58.4712C86.009 59.2578 84.9675 59.6901 83.8592 59.6901C82.75 59.6901 81.7085 59.2578 80.9244 58.4712L78.3776 55.9161C78.3766 55.9161 78.3766 55.9161 78.3766 55.9151L66.9725 44.4741C66.5824 44.0828 65.951 44.0828 65.5619 44.4741C65.1719 44.8654 65.1719 45.4979 65.5619 45.8892L70.2495 50.5919L76.9671 57.3313C78.5841 58.9545 78.5831 61.5946 76.9661 63.2179C76.182 64.0045 75.1395 64.4369 74.0322 64.4369C72.9239 64.4369 71.8825 64.0045 71.0984 63.2179L67.4004 59.508L59.6933 51.7769C59.3032 51.3856 58.6717 51.3856 58.2827 51.7769C57.8926 52.1682 57.8926 52.8007 58.2827 53.192L62.2899 57.2132L62.2909 57.2142L65.9889 60.9241L67.4423 62.3812C69.0594 64.0035 69.0594 66.6446 67.4423 68.2679C65.8243 69.8912 63.1907 69.8912 61.5737 68.2679L55.8247 62.5013C55.8247 62.5003 55.8237 62.5003 55.8227 62.5003L52.414 59.0796C52.024 58.6893 51.3935 58.6893 51.0035 59.0796C50.6134 59.471 50.6134 60.1045 51.0035 60.4948L57.3799 66.8918C58.164 67.6784 58.5949 68.7243 58.5949 69.8351C58.5949 70.947 58.164 71.9928 57.3799 72.7795C56.5948 73.5651 55.5544 73.9984 54.4451 73.9984C53.3378 73.9984 52.2953 73.5651 51.5112 72.7795L49.3575 70.6188C48.9674 70.2274 48.336 70.2274 47.9469 70.6188C47.5569 71.0091 47.5569 71.6426 47.9469 72.0339L50.1007 74.1946C51.2618 75.3585 52.8051 76 54.4451 76C56.0871 76 57.6303 75.3585 58.7905 74.1946C59.9067 73.0757 60.5342 71.6015 60.5811 70.0263C61.7173 70.981 63.1049 71.4864 64.5075 71.4864C66.0807 71.4864 67.6538 70.885 68.8529 69.683C70.027 68.5051 70.6176 66.9639 70.6405 65.4156C71.6381 66.0812 72.8072 66.4385 74.0322 66.4385C75.6722 66.4385 77.2155 65.7979 78.3766 64.633C79.5328 63.4731 80.1174 61.9629 80.1583 60.4407C81.2187 61.2484 82.5036 61.6917 83.8592 61.6917C85.5002 61.6917 87.0435 61.0512 88.2036 59.8863C90.5988 57.4824 90.5988 53.5723 88.2036 51.1684ZM49.8952 15.8145C46.5005 13.5667 41.9496 14.0331 39.0686 16.9224C38.6786 17.3127 38.0481 17.3127 37.6581 16.9224L23.2033 2.41991L2.40413 23.5136L16.8678 38.024C17.2579 38.4143 17.2579 39.0478 16.8678 39.4391C16.6733 39.6343 16.4179 39.7324 16.1625 39.7324C15.9072 39.7324 15.6518 39.6343 15.4573 39.4391L0.292291 24.2251C-0.0957618 23.8348 -0.097757 23.2053 0.2883 22.813L22.4901 0.296234C22.6766 0.107085 22.931 0 23.1964 0H23.1994C23.4647 0 23.7171 0.105083 23.9046 0.293231L38.3963 14.8327C41.9506 11.8864 47.095 11.5601 50.9935 14.1442C51.4534 14.4484 51.5801 15.0699 51.2768 15.5303C50.9735 15.9926 50.3561 16.1197 49.8952 15.8145Z" fill="#8ED8F8"/>
<path fill-rule="evenodd" clip-rule="evenodd" d="M48.6008 70.6008C47.7014 71.5002 46.5046 71.9969 45.2327 71.9969C43.9587 71.9969 42.7629 71.5002 41.8625 70.6008C40.9632 69.7004 40.4674 68.5046 40.4674 67.2317C40.4674 65.9587 40.9632 64.7619 41.8625 63.8625C42.7629 62.9632 43.9587 62.4664 45.2327 62.4664C46.5046 62.4664 47.7014 62.9632 48.6008 63.8625C49.5002 64.7619 49.9969 65.9587 49.9969 67.2317C49.9969 68.5046 49.5002 69.7004 48.6008 70.6008ZM33.7081 62.4464C31.8502 60.5885 31.8502 57.5649 33.7081 55.7071C34.6375 54.7787 35.8564 54.315 37.0772 54.315C38.2971 54.315 39.518 54.7787 40.4464 55.7071C42.3042 57.5649 42.3042 60.5885 40.4464 62.4464C38.5885 64.3042 35.5659 64.3032 33.7081 62.4464ZM28.9228 55.687C27.6498 55.687 26.453 55.1913 25.5526 54.2909C23.6958 52.4331 23.6958 49.4105 25.5526 47.5526C26.453 46.6533 27.6498 46.1575 28.9228 46.1575C30.1957 46.1575 31.3915 46.6533 32.2919 47.5526C34.1488 49.4105 34.1488 52.4331 32.2919 54.2909C31.3915 55.1913 30.1957 55.687 28.9228 55.687ZM20.7673 47.5326C19.4944 47.5326 18.2986 47.0368 17.3992 46.1365C16.4988 45.2361 16.0031 44.0403 16.0031 42.7673C16.0031 41.4944 16.4988 40.2986 17.3992 39.3982C18.2986 38.4988 19.4944 38.0031 20.7673 38.0031C22.0403 38.0031 23.2371 38.4988 24.1365 39.3982C25.0368 40.2986 25.5326 41.4944 25.5326 42.7673C25.5326 44.0403 25.0368 45.2361 24.1365 46.1365C23.2371 47.0368 22.0403 47.5326 20.7673 47.5326ZM45.2327 60.4633C44.6918 60.4633 44.161 60.5344 43.6493 60.6566C44.1771 58.4433 43.5862 56.0156 41.8625 54.2909C40.1379 52.5663 37.7072 51.9764 35.4918 52.5072C36.0226 50.2928 35.4337 47.8611 33.7081 46.1365C32.4301 44.8585 30.7305 44.1544 28.9228 44.1544C28.383 44.1544 27.8551 44.2246 27.3434 44.3467C27.4646 43.834 27.5357 43.3072 27.5357 42.7673C27.5357 40.9596 26.8316 39.261 25.5526 37.982C24.2747 36.7041 22.5761 36 20.7673 36C18.9596 36 17.261 36.7041 15.983 37.982C14.7041 39.26 14 40.9596 14 42.7673C14 44.5751 14.7041 46.2747 15.983 47.5526C17.261 48.8316 18.9596 49.5357 20.7673 49.5357C21.3082 49.5357 21.838 49.4646 22.3507 49.3424C21.8229 51.5557 22.4138 53.9844 24.1365 55.7071C25.4154 56.986 27.115 57.6901 28.9228 57.6901C29.4636 57.6901 29.9934 57.62 30.5062 57.4968C29.9774 59.7102 30.5683 62.1389 32.2919 63.8625C33.6109 65.1815 35.3446 65.8415 37.0772 65.8415C37.608 65.8415 38.1388 65.7714 38.6576 65.6473C38.5344 66.161 38.4643 66.6898 38.4643 67.2317C38.4643 69.0394 39.1684 70.739 40.4464 72.017C41.7253 73.2949 43.4239 74 45.2327 74C47.0394 74 48.739 73.2949 50.017 72.017C51.2949 70.739 52 69.0394 52 67.2317C52 65.4239 51.2949 63.7243 50.017 62.4464C48.739 61.1684 47.0394 60.4633 45.2327 60.4633Z" fill="#263148"/>
<path fill-rule="evenodd" clip-rule="evenodd" d="M101.707 23.2443L78.6146 0.291295C78.2239 -0.0970984 77.5913 -0.0970984 77.2015 0.291295L69.975 7.4731C68.0742 5.90364 65.7037 5.05036 63.2013 5.05036C60.363 5.05036 57.6947 6.14899 55.6879 8.1436L39.8279 23.9088C38.6486 25.08 38 26.6385 38 28.2954C38 29.9523 38.6486 31.5108 39.8279 32.6819C41.0061 33.8541 42.5731 34.4997 44.2411 34.4997C45.9091 34.4997 47.4761 33.8541 48.6543 32.6819L58.3393 23.0555L60.1851 24.8902C65.9355 30.6059 75.2947 30.6059 81.0451 24.8902C81.4359 24.5028 81.4359 23.8741 81.0451 23.4857C80.6553 23.0983 80.0227 23.0983 79.632 23.4857C74.6591 28.4275 66.5701 28.4265 61.5983 23.4857L59.0458 20.9487C58.859 20.7619 58.6051 20.6576 58.3393 20.6576C58.0745 20.6576 57.8206 20.7619 57.6327 20.9487L47.2412 31.2774C46.4397 32.074 45.3744 32.5131 44.2411 32.5131C43.1078 32.5131 42.0425 32.074 41.241 31.2774C40.4395 30.4807 39.9988 29.4218 39.9988 28.2954C39.9988 27.1689 40.4395 26.11 41.241 25.3134L57.1011 9.54818C58.731 7.92904 60.8967 7.03703 63.2013 7.03703C65.5048 7.03703 67.6715 7.92904 69.3004 9.54818C69.4883 9.73393 69.7422 9.83923 70.007 9.83923C70.2728 9.83923 70.5267 9.73393 70.7136 9.54818L77.9081 2.39816L99.5875 23.9466L80.8242 42.5954L82.2383 44L101.707 24.6489C101.894 24.4631 102 24.2098 102 23.9466C102 23.6833 101.894 23.43 101.707 23.2443Z" fill="#263148"/>
</svg>
