<svg width="117" height="83" viewBox="0 0 117 83" fill="none" xmlns="http://www.w3.org/2000/svg">
<path fill-rule="evenodd" clip-rule="evenodd" d="M76 83C98.6437 83 117 64.6437 117 42C117 19.3563 98.6437 1 76 1C53.3563 1 35 19.3563 35 42C35 64.6437 53.3563 83 76 83Z" fill="#EEF8FD"/>
<path fill-rule="evenodd" clip-rule="evenodd" d="M45.4455 47.9915C45.4455 47.4348 44.9974 46.983 44.443 46.983H2.02697C2.48309 36.7903 9.80605 27.9661 19.7775 25.7838C20.1995 25.691 20.5163 25.335 20.5614 24.9014C20.6055 24.4687 20.368 24.0553 19.973 23.8778C15.883 22.0373 13.2405 17.9429 13.2405 13.4471C13.2405 7.14407 18.337 2.01696 24.6023 2.01696C30.8667 2.01696 35.9632 7.14407 35.9632 13.4471C35.9632 17.9429 33.3207 22.0373 29.2317 23.8778C28.8367 24.0553 28.5991 24.4687 28.6433 24.9014C28.6884 25.335 29.0051 25.691 29.4272 25.7838C32.4827 26.4524 35.3206 27.7312 37.8619 29.5868C38.308 29.9135 38.9355 29.8117 39.2613 29.3619C39.5861 28.9111 39.4869 28.2808 39.0378 27.953C36.9476 26.4282 34.674 25.2594 32.2511 24.4647C35.7868 21.9788 37.9681 17.8793 37.9681 13.4471C37.9681 6.03172 31.9724 0 24.6023 0C17.2313 0 11.2356 6.03172 11.2356 13.4471C11.2356 17.8803 13.4189 21.9808 16.9566 24.4667C6.99716 27.7513 0 37.2754 0 47.9915C0 48.5482 0.448099 49 1.00246 49H44.443C44.9974 49 45.4455 48.5482 45.4455 47.9915ZM104.998 49H61.557C61.0036 49 60.5545 48.5482 60.5545 47.9915C60.5545 47.4348 61.0036 46.983 61.557 46.983H103.973C103.518 36.7903 96.1939 27.9661 86.2235 25.7838C85.8005 25.691 85.4837 25.335 85.4396 24.9014C85.3955 24.4687 85.632 24.0553 86.027 23.8778C90.117 22.0373 92.7585 17.9429 92.7585 13.4471C92.7585 7.14407 87.662 2.01696 81.3977 2.01696C75.1323 2.01696 70.0358 7.14407 70.0358 13.4471C70.0358 17.9429 72.6783 22.0373 76.7673 23.8778C77.1633 24.0553 77.3998 24.4687 77.3557 24.9014C77.3106 25.335 76.9949 25.691 76.5718 25.7838C73.5163 26.4524 70.6784 27.7312 68.1381 29.5868C67.69 29.9135 67.0635 29.8127 66.7377 29.3619C66.4129 28.9111 66.5131 28.2808 66.9612 27.953C69.0514 26.4282 71.325 25.2594 73.7479 24.4647C70.2122 21.9788 68.0309 17.8793 68.0309 13.4471C68.0309 6.03172 74.0276 0 81.3977 0C88.7677 0 94.7634 6.03172 94.7634 13.4471C94.7634 17.8803 92.5811 21.9808 89.0434 24.4667C99.0028 27.7513 106 37.2754 106 47.9915C106 48.5482 105.552 49 104.998 49Z" fill="#263148"/>
<path fill-rule="evenodd" clip-rule="evenodd" d="M25.0352 74.9971H80.9648C80.5031 62.435 71.3994 51.5253 58.9762 48.8394C58.5508 48.7483 58.2333 48.3948 58.1879 47.9642C58.1436 47.5345 58.3815 47.124 58.7796 46.9477C63.8834 44.6784 67.1817 39.6322 67.1817 34.0902C67.1817 26.323 60.8199 20.0029 53.0005 20.0029C45.1811 20.0029 38.8193 26.323 38.8193 34.0902C38.8193 39.6322 42.1176 44.6784 47.2224 46.9477C47.6195 47.124 47.8585 47.5345 47.8141 47.9642C47.7687 48.3948 47.4502 48.7483 47.0248 48.8394C34.6016 51.5253 25.4969 62.435 25.0352 74.9971ZM81.992 77H24.008C23.4516 77 23 76.5514 23 75.9986C23 62.9397 31.7388 51.3531 44.1146 47.5325C39.6046 44.5883 36.8032 39.55 36.8032 34.0902C36.8032 25.2184 44.0692 18 53.0005 18C61.9318 18 69.1978 25.2184 69.1978 34.0902C69.1978 39.55 66.3964 44.5883 61.8875 47.5325C74.2612 51.3531 83 62.9397 83 75.9986C83 76.5514 82.5494 77 81.992 77Z" fill="#8ED8F8"/>
</svg>
