<svg width="224" height="52" viewBox="0 0 224 52" fill="none" xmlns="http://www.w3.org/2000/svg">
<path d="M26 51C39.8071 51 51 39.8071 51 26C51 12.1929 39.8071 1 26 1C12.1929 1 1 12.1929 1 26C1 39.8071 12.1929 51 26 51Z" stroke="#00A77E" stroke-width="2" stroke-miterlimit="10"/>
<path d="M41.3982 26C41.3982 34.5083 34.5084 41.3981 26.0001 41.3981C17.4918 41.3981 10.6021 34.5083 10.6021 26" stroke="#00A77E" stroke-width="2" stroke-miterlimit="10"/>
<path d="M10.6021 21.2756C10.6021 17.9948 13.2705 15.3264 16.5513 15.3264C19.8321 15.3264 22.5006 17.9948 22.5006 21.2756" stroke="#00A77E" stroke-width="2" stroke-miterlimit="10"/>
<path d="M29.4778 21.2756C29.4778 17.9948 32.1462 15.3264 35.427 15.3264C38.7079 15.3264 41.3763 17.9948 41.3763 21.2756" stroke="#00A77E" stroke-width="2" stroke-miterlimit="10"/>
<path d="M83 51C96.8071 51 108 39.8071 108 26C108 12.1929 96.8071 1 83 1C69.1929 1 58 12.1929 58 26C58 39.8071 69.1929 51 83 51Z" stroke="#00A77E" stroke-width="2" stroke-miterlimit="10"/>
<path d="M98.3982 26C98.3982 34.5083 91.5084 41.3981 83.0001 41.3981C74.4918 41.3981 67.6021 34.5083 67.6021 26" stroke="#00A77E" stroke-width="2" stroke-miterlimit="10"/>
<path d="M67.6021 21.2756C67.6021 17.9948 70.2705 15.3264 73.5513 15.3264C76.8321 15.3264 79.5006 17.9948 79.5006 21.2756" stroke="#00A77E" stroke-width="2" stroke-miterlimit="10"/>
<path d="M86.4778 21.2756C86.4778 17.9948 89.1462 15.3264 92.427 15.3264C95.7079 15.3264 98.3763 17.9948 98.3763 21.2756" stroke="#00A77E" stroke-width="2" stroke-miterlimit="10"/>
<path d="M140.161 51C153.968 51 165.161 39.8071 165.161 26C165.161 12.1929 153.968 1 140.161 1C126.354 1 115.161 12.1929 115.161 26C115.161 39.8071 126.354 51 140.161 51Z" stroke="#00A77E" stroke-width="2" stroke-miterlimit="10"/>
<path d="M155.56 26C155.56 34.5083 148.67 41.3981 140.162 41.3981C131.653 41.3981 124.763 34.5083 124.763 26" stroke="#00A77E" stroke-width="2" stroke-miterlimit="10"/>
<path d="M124.763 21.2756C124.763 17.9948 127.432 15.3264 130.713 15.3264C133.994 15.3264 136.662 17.9948 136.662 21.2756" stroke="#00A77E" stroke-width="2" stroke-miterlimit="10"/>
<path d="M143.639 21.2756C143.639 17.9948 146.308 15.3264 149.588 15.3264C152.869 15.3264 155.538 17.9948 155.538 21.2756" stroke="#00A77E" stroke-width="2" stroke-miterlimit="10"/>
<path d="M197.323 51C211.13 51 222.323 39.8071 222.323 26C222.323 12.1929 211.13 1 197.323 1C183.516 1 172.323 12.1929 172.323 26C172.323 39.8071 183.516 51 197.323 51Z" stroke="#00A77E" stroke-width="2" stroke-miterlimit="10"/>
<path d="M212.721 26C212.721 34.5083 205.831 41.3981 197.323 41.3981C188.815 41.3981 181.925 34.5083 181.925 26" stroke="#00A77E" stroke-width="2" stroke-miterlimit="10"/>
<path d="M181.925 21.2756C181.925 17.9948 184.593 15.3264 187.874 15.3264C191.155 15.3264 193.823 17.9948 193.823 21.2756" stroke="#00A77E" stroke-width="2" stroke-miterlimit="10"/>
<path d="M200.801 21.2756C200.801 17.9948 203.469 15.3264 206.75 15.3264C210.031 15.3264 212.699 17.9948 212.699 21.2756" stroke="#00A77E" stroke-width="2" stroke-miterlimit="10"/>
</svg>
