<svg width="224" height="52" viewBox="0 0 224 52" fill="none" xmlns="http://www.w3.org/2000/svg">
<path d="M26 51C39.8071 51 51 39.8071 51 26C51 12.1929 39.8071 1 26 1C12.1929 1 1 12.1929 1 26C1 39.8071 12.1929 51 26 51Z" stroke="#263148" stroke-width="2" stroke-miterlimit="10"/>
<path d="M41.3982 26C41.3982 34.5083 34.5084 41.3981 26.0001 41.3981C17.4918 41.3981 10.6021 34.5083 10.6021 26" stroke="#263148" stroke-width="2" stroke-miterlimit="10"/>
<path d="M10.6021 21.2756C10.6021 17.9948 13.2705 15.3264 16.5513 15.3264C19.8321 15.3264 22.5006 17.9948 22.5006 21.2756" stroke="#263148" stroke-width="2" stroke-miterlimit="10"/>
<path d="M29.4778 21.2756C29.4778 17.9948 32.1462 15.3264 35.427 15.3264C38.7079 15.3264 41.3763 17.9948 41.3763 21.2756" stroke="#263148" stroke-width="2" stroke-miterlimit="10"/>
<path d="M83.1614 51C96.9685 51 108.161 39.8071 108.161 26C108.161 12.1929 96.9685 1 83.1614 1C69.3543 1 58.1614 12.1929 58.1614 26C58.1614 39.8071 69.3543 51 83.1614 51Z" stroke="#263148" stroke-width="2" stroke-miterlimit="10"/>
<path d="M98.5596 26C98.5596 34.5083 91.6698 41.3981 83.1615 41.3981C74.6532 41.3981 67.7634 34.5083 67.7634 26" stroke="#263148" stroke-width="2" stroke-miterlimit="10"/>
<path d="M67.7634 21.2756C67.7634 17.9948 70.4318 15.3264 73.7127 15.3264C76.9935 15.3264 79.6619 17.9948 79.6619 21.2756" stroke="#263148" stroke-width="2" stroke-miterlimit="10"/>
<path d="M86.6392 21.2756C86.6392 17.9948 89.3076 15.3264 92.5884 15.3264C95.8693 15.3264 98.5377 17.9948 98.5377 21.2756" stroke="#263148" stroke-width="2" stroke-miterlimit="10"/>
<path d="M140.323 51C154.13 51 165.323 39.8071 165.323 26C165.323 12.1929 154.13 1 140.323 1C126.516 1 115.323 12.1929 115.323 26C115.323 39.8071 126.516 51 140.323 51Z" stroke="#263148" stroke-width="2" stroke-miterlimit="10"/>
<path d="M155.721 26C155.721 34.5083 148.831 41.3981 140.323 41.3981C131.815 41.3981 124.925 34.5083 124.925 26" stroke="#263148" stroke-width="2" stroke-miterlimit="10"/>
<path d="M124.925 21.2756C124.925 17.9948 127.593 15.3264 130.874 15.3264C134.155 15.3264 136.823 17.9948 136.823 21.2756" stroke="#263148" stroke-width="2" stroke-miterlimit="10"/>
<path d="M143.801 21.2756C143.801 17.9948 146.469 15.3264 149.75 15.3264C153.031 15.3264 155.699 17.9948 155.699 21.2756" stroke="#263148" stroke-width="2" stroke-miterlimit="10"/>
<path d="M197.484 51C211.291 51 222.484 39.8071 222.484 26C222.484 12.1929 211.291 1 197.484 1C183.677 1 172.484 12.1929 172.484 26C172.484 39.8071 183.677 51 197.484 51Z" stroke="#263148" stroke-width="2" stroke-miterlimit="10"/>
<path d="M212.882 26C212.882 34.5083 205.993 41.3981 197.484 41.3981C188.976 41.3981 182.086 34.5083 182.086 26" stroke="#263148" stroke-width="2" stroke-miterlimit="10"/>
<path d="M182.086 21.2756C182.086 17.9948 184.755 15.3264 188.035 15.3264C191.316 15.3264 193.985 17.9948 193.985 21.2756" stroke="#263148" stroke-width="2" stroke-miterlimit="10"/>
<path d="M200.962 21.2756C200.962 17.9948 203.63 15.3264 206.911 15.3264C210.192 15.3264 212.86 17.9948 212.86 21.2756" stroke="#263148" stroke-width="2" stroke-miterlimit="10"/>
</svg>
