<svg width="385" height="141" viewBox="0 0 385 141" fill="none" xmlns="http://www.w3.org/2000/svg">
<path d="M22.3098 43.6197C34.079 43.6197 43.6197 34.079 43.6197 22.3098C43.6197 10.5407 34.079 1 22.3098 1C10.5407 1 1 10.5407 1 22.3098C1 34.079 10.5407 43.6197 22.3098 43.6197Z" stroke="#00A77E" stroke-width="2" stroke-miterlimit="10"/>
<path d="M35.435 22.3098C35.435 29.5622 29.5622 35.435 22.3098 35.435C15.0574 35.435 9.18457 29.5622 9.18457 22.3098" stroke="#00A77E" stroke-width="2" stroke-miterlimit="10"/>
<path d="M9.18457 18.2828C9.18457 15.4863 11.4591 13.2117 14.2557 13.2117C17.0522 13.2117 19.3268 15.4863 19.3268 18.2828" stroke="#00A77E" stroke-width="2" stroke-miterlimit="10"/>
<path d="M25.2742 18.2828C25.2742 15.4863 27.5487 13.2117 30.3453 13.2117C33.1418 13.2117 35.4164 15.4863 35.4164 18.2828" stroke="#00A77E" stroke-width="2" stroke-miterlimit="10"/>
<path d="M22.3098 91.3538C34.079 91.3538 43.6197 81.813 43.6197 70.0439C43.6197 58.2748 34.079 48.7341 22.3098 48.7341C10.5407 48.7341 1 58.2748 1 70.0439C1 81.813 10.5407 91.3538 22.3098 91.3538Z" stroke="#8ED8F8" stroke-width="2" stroke-miterlimit="10"/>
<path d="M35.435 70.0439C35.435 77.2963 29.5622 83.1691 22.3098 83.1691C15.0574 83.1691 9.18457 77.2963 9.18457 70.0439" stroke="#8ED8F8" stroke-width="2" stroke-miterlimit="10"/>
<path d="M9.18457 66.0169C9.18457 63.2203 11.4591 60.9458 14.2557 60.9458C17.0522 60.9458 19.3268 63.2203 19.3268 66.0169" stroke="#8ED8F8" stroke-width="2" stroke-miterlimit="10"/>
<path d="M25.2742 66.0169C25.2742 63.2203 27.5487 60.9458 30.3453 60.9458C33.1418 60.9458 35.4164 63.2203 35.4164 66.0169" stroke="#8ED8F8" stroke-width="2" stroke-miterlimit="10"/>
<path d="M22.3098 139.088C34.079 139.088 43.6197 129.547 43.6197 117.778C43.6197 106.009 34.079 96.4681 22.3098 96.4681C10.5407 96.4681 1 106.009 1 117.778C1 129.547 10.5407 139.088 22.3098 139.088Z" stroke="#00A77E" stroke-width="2" stroke-miterlimit="10"/>
<path d="M35.435 117.778C35.435 125.03 29.5622 130.903 22.3098 130.903C15.0574 130.903 9.18457 125.03 9.18457 117.778" stroke="#00A77E" stroke-width="2" stroke-miterlimit="10"/>
<path d="M9.18457 113.751C9.18457 110.954 11.4591 108.68 14.2557 108.68C17.0522 108.68 19.3268 110.954 19.3268 113.751" stroke="#00A77E" stroke-width="2" stroke-miterlimit="10"/>
<path d="M25.2742 113.751C25.2742 110.954 27.5487 108.68 30.3453 108.68C33.1418 108.68 35.4164 110.954 35.4164 113.751" stroke="#00A77E" stroke-width="2" stroke-miterlimit="10"/>
<path d="M216.656 43.6197C228.425 43.6197 237.965 34.079 237.965 22.3098C237.965 10.5407 228.425 1 216.656 1C204.886 1 195.346 10.5407 195.346 22.3098C195.346 34.079 204.886 43.6197 216.656 43.6197Z" stroke="#8ED8F8" stroke-width="2" stroke-miterlimit="10"/>
<path d="M229.781 22.3098C229.781 29.5622 223.908 35.435 216.656 35.435C209.403 35.435 203.53 29.5622 203.53 22.3098" stroke="#8ED8F8" stroke-width="2" stroke-miterlimit="10"/>
<path d="M203.53 18.2828C203.53 15.4863 205.805 13.2117 208.601 13.2117C211.398 13.2117 213.672 15.4863 213.672 18.2828" stroke="#8ED8F8" stroke-width="2" stroke-miterlimit="10"/>
<path d="M219.62 18.2828C219.62 15.4863 221.894 13.2117 224.691 13.2117C227.488 13.2117 229.762 15.4863 229.762 18.2828" stroke="#8ED8F8" stroke-width="2" stroke-miterlimit="10"/>
<path d="M216.656 91.3538C228.425 91.3538 237.965 81.813 237.965 70.0439C237.965 58.2748 228.425 48.7341 216.656 48.7341C204.886 48.7341 195.346 58.2748 195.346 70.0439C195.346 81.813 204.886 91.3538 216.656 91.3538Z" stroke="#8ED8F8" stroke-width="2" stroke-miterlimit="10"/>
<path d="M229.781 70.0439C229.781 77.2963 223.908 83.1691 216.656 83.1691C209.403 83.1691 203.53 77.2963 203.53 70.0439" stroke="#8ED8F8" stroke-width="2" stroke-miterlimit="10"/>
<path d="M203.53 66.0169C203.53 63.2203 205.805 60.9458 208.601 60.9458C211.398 60.9458 213.672 63.2203 213.672 66.0169" stroke="#8ED8F8" stroke-width="2" stroke-miterlimit="10"/>
<path d="M219.62 66.0169C219.62 63.2203 221.894 60.9458 224.691 60.9458C227.488 60.9458 229.762 63.2203 229.762 66.0169" stroke="#8ED8F8" stroke-width="2" stroke-miterlimit="10"/>
<path d="M216.656 139.088C228.425 139.088 237.965 129.547 237.965 117.778C237.965 106.009 228.425 96.4681 216.656 96.4681C204.886 96.4681 195.346 106.009 195.346 117.778C195.346 129.547 204.886 139.088 216.656 139.088Z" stroke="#00A77E" stroke-width="2" stroke-miterlimit="10"/>
<path d="M229.781 117.778C229.781 125.03 223.908 130.903 216.656 130.903C209.403 130.903 203.53 125.03 203.53 117.778" stroke="#00A77E" stroke-width="2" stroke-miterlimit="10"/>
<path d="M203.53 113.751C203.53 110.954 205.805 108.68 208.601 108.68C211.398 108.68 213.672 110.954 213.672 113.751" stroke="#00A77E" stroke-width="2" stroke-miterlimit="10"/>
<path d="M219.62 113.751C219.62 110.954 221.894 108.68 224.691 108.68C227.488 108.68 229.762 110.954 229.762 113.751" stroke="#00A77E" stroke-width="2" stroke-miterlimit="10"/>
<path d="M70.8963 43.6197C82.6654 43.6197 92.2061 34.079 92.2061 22.3098C92.2061 10.5407 82.6654 1 70.8963 1C59.1272 1 49.5864 10.5407 49.5864 22.3098C49.5864 34.079 59.1272 43.6197 70.8963 43.6197Z" stroke="#00A77E" stroke-width="2" stroke-miterlimit="10"/>
<path d="M84.0214 22.3098C84.0214 29.5622 78.1487 35.435 70.8962 35.435C63.6438 35.435 57.771 29.5622 57.771 22.3098" stroke="#00A77E" stroke-width="2" stroke-miterlimit="10"/>
<path d="M57.771 18.2828C57.771 15.4863 60.0455 13.2117 62.8421 13.2117C65.6387 13.2117 67.9132 15.4863 67.9132 18.2828" stroke="#00A77E" stroke-width="2" stroke-miterlimit="10"/>
<path d="M73.8606 18.2828C73.8606 15.4863 76.1351 13.2117 78.9317 13.2117C81.7283 13.2117 84.0028 15.4863 84.0028 18.2828" stroke="#00A77E" stroke-width="2" stroke-miterlimit="10"/>
<path d="M70.8963 91.3538C82.6654 91.3538 92.2061 81.813 92.2061 70.0439C92.2061 58.2748 82.6654 48.7341 70.8963 48.7341C59.1272 48.7341 49.5864 58.2748 49.5864 70.0439C49.5864 81.813 59.1272 91.3538 70.8963 91.3538Z" stroke="#8ED8F8" stroke-width="2" stroke-miterlimit="10"/>
<path d="M84.0214 70.0439C84.0214 77.2963 78.1487 83.1691 70.8962 83.1691C63.6438 83.1691 57.771 77.2963 57.771 70.0439" stroke="#8ED8F8" stroke-width="2" stroke-miterlimit="10"/>
<path d="M57.771 66.0169C57.771 63.2203 60.0455 60.9458 62.8421 60.9458C65.6387 60.9458 67.9132 63.2203 67.9132 66.0169" stroke="#8ED8F8" stroke-width="2" stroke-miterlimit="10"/>
<path d="M73.8606 66.0169C73.8606 63.2203 76.1351 60.9458 78.9317 60.9458C81.7283 60.9458 84.0028 63.2203 84.0028 66.0169" stroke="#8ED8F8" stroke-width="2" stroke-miterlimit="10"/>
<path d="M70.8963 139.088C82.6654 139.088 92.2061 129.547 92.2061 117.778C92.2061 106.009 82.6654 96.4681 70.8963 96.4681C59.1272 96.4681 49.5864 106.009 49.5864 117.778C49.5864 129.547 59.1272 139.088 70.8963 139.088Z" stroke="#00A77E" stroke-width="2" stroke-miterlimit="10"/>
<path d="M84.0214 117.778C84.0214 125.03 78.1487 130.903 70.8962 130.903C63.6438 130.903 57.771 125.03 57.771 117.778" stroke="#00A77E" stroke-width="2" stroke-miterlimit="10"/>
<path d="M57.771 113.751C57.771 110.954 60.0455 108.68 62.8421 108.68C65.6387 108.68 67.9132 110.954 67.9132 113.751" stroke="#00A77E" stroke-width="2" stroke-miterlimit="10"/>
<path d="M73.8606 113.751C73.8606 110.954 76.1351 108.68 78.9317 108.68C81.7283 108.68 84.0028 110.954 84.0028 113.751" stroke="#00A77E" stroke-width="2" stroke-miterlimit="10"/>
<path d="M265.242 43.6197C277.011 43.6197 286.552 34.079 286.552 22.3098C286.552 10.5407 277.011 1 265.242 1C253.473 1 243.932 10.5407 243.932 22.3098C243.932 34.079 253.473 43.6197 265.242 43.6197Z" stroke="#00A77E" stroke-width="2" stroke-miterlimit="10"/>
<path d="M278.367 22.3098C278.367 29.5622 272.494 35.435 265.242 35.435C257.989 35.435 252.117 29.5622 252.117 22.3098" stroke="#00A77E" stroke-width="2" stroke-miterlimit="10"/>
<path d="M252.117 18.2828C252.117 15.4863 254.391 13.2117 257.188 13.2117C259.984 13.2117 262.259 15.4863 262.259 18.2828" stroke="#00A77E" stroke-width="2" stroke-miterlimit="10"/>
<path d="M268.206 18.2828C268.206 15.4863 270.481 13.2117 273.277 13.2117C276.074 13.2117 278.349 15.4863 278.349 18.2828" stroke="#00A77E" stroke-width="2" stroke-miterlimit="10"/>
<path d="M265.242 91.3538C277.011 91.3538 286.552 81.813 286.552 70.0439C286.552 58.2748 277.011 48.7341 265.242 48.7341C253.473 48.7341 243.932 58.2748 243.932 70.0439C243.932 81.813 253.473 91.3538 265.242 91.3538Z" stroke="#1F2147" stroke-width="2" stroke-miterlimit="10"/>
<path d="M278.367 70.0439C278.367 77.2963 272.494 83.1691 265.242 83.1691C257.989 83.1691 252.117 77.2963 252.117 70.0439" stroke="#1F2147" stroke-width="2" stroke-miterlimit="10"/>
<path d="M252.117 66.0169C252.117 63.2203 254.391 60.9458 257.188 60.9458C259.984 60.9458 262.259 63.2203 262.259 66.0169" stroke="#1F2147" stroke-width="2" stroke-miterlimit="10"/>
<path d="M268.206 66.0169C268.206 63.2203 270.481 60.9458 273.277 60.9458C276.074 60.9458 278.349 63.2203 278.349 66.0169" stroke="#1F2147" stroke-width="2" stroke-miterlimit="10"/>
<path d="M119.62 43.6197C131.389 43.6197 140.93 34.079 140.93 22.3098C140.93 10.5407 131.389 1 119.62 1C107.851 1 98.3105 10.5407 98.3105 22.3098C98.3105 34.079 107.851 43.6197 119.62 43.6197Z" stroke="#1F2147" stroke-width="2" stroke-miterlimit="10"/>
<path d="M132.746 22.3098C132.746 29.5622 126.873 35.435 119.62 35.435C112.368 35.435 106.495 29.5622 106.495 22.3098" stroke="#1F2147" stroke-width="2" stroke-miterlimit="10"/>
<path d="M106.495 18.2828C106.495 15.4863 108.77 13.2117 111.566 13.2117C114.363 13.2117 116.637 15.4863 116.637 18.2828" stroke="#1F2147" stroke-width="2" stroke-miterlimit="10"/>
<path d="M122.585 18.2828C122.585 15.4863 124.859 13.2117 127.656 13.2117C130.452 13.2117 132.727 15.4863 132.727 18.2828" stroke="#1F2147" stroke-width="2" stroke-miterlimit="10"/>
<path d="M119.62 91.3538C131.389 91.3538 140.93 81.813 140.93 70.0439C140.93 58.2748 131.389 48.7341 119.62 48.7341C107.851 48.7341 98.3105 58.2748 98.3105 70.0439C98.3105 81.813 107.851 91.3538 119.62 91.3538Z" stroke="#00A77E" stroke-width="2" stroke-miterlimit="10"/>
<path d="M132.746 70.0439C132.746 77.2963 126.873 83.1691 119.62 83.1691C112.368 83.1691 106.495 77.2963 106.495 70.0439" stroke="#00A77E" stroke-width="2" stroke-miterlimit="10"/>
<path d="M106.495 66.0169C106.495 63.2203 108.77 60.9458 111.566 60.9458C114.363 60.9458 116.637 63.2203 116.637 66.0169" stroke="#00A77E" stroke-width="2" stroke-miterlimit="10"/>
<path d="M122.585 66.0169C122.585 63.2203 124.859 60.9458 127.656 60.9458C130.452 60.9458 132.727 63.2203 132.727 66.0169" stroke="#00A77E" stroke-width="2" stroke-miterlimit="10"/>
<path d="M119.62 139.088C131.389 139.088 140.93 129.547 140.93 117.778C140.93 106.009 131.389 96.4681 119.62 96.4681C107.851 96.4681 98.3105 106.009 98.3105 117.778C98.3105 129.547 107.851 139.088 119.62 139.088Z" stroke="#8ED8F8" stroke-width="2" stroke-miterlimit="10"/>
<path d="M132.746 117.778C132.746 125.03 126.873 130.903 119.62 130.903C112.368 130.903 106.495 125.03 106.495 117.778" stroke="#8ED8F8" stroke-width="2" stroke-miterlimit="10"/>
<path d="M106.495 113.751C106.495 110.954 108.77 108.68 111.566 108.68C114.363 108.68 116.637 110.954 116.637 113.751" stroke="#8ED8F8" stroke-width="2" stroke-miterlimit="10"/>
<path d="M122.585 113.751C122.585 110.954 124.859 108.68 127.656 108.68C130.452 108.68 132.727 110.954 132.727 113.751" stroke="#8ED8F8" stroke-width="2" stroke-miterlimit="10"/>
<path d="M313.966 43.6197C325.735 43.6197 335.276 34.079 335.276 22.3098C335.276 10.5407 325.735 1 313.966 1C302.197 1 292.656 10.5407 292.656 22.3098C292.656 34.079 302.197 43.6197 313.966 43.6197Z" stroke="#1F2147" stroke-width="2" stroke-miterlimit="10"/>
<path d="M327.091 22.3098C327.091 29.5622 321.218 35.435 313.966 35.435C306.714 35.435 300.841 29.5622 300.841 22.3098" stroke="#1F2147" stroke-width="2" stroke-miterlimit="10"/>
<path d="M300.841 18.2828C300.841 15.4863 303.115 13.2117 305.912 13.2117C308.708 13.2117 310.983 15.4863 310.983 18.2828" stroke="#1F2147" stroke-width="2" stroke-miterlimit="10"/>
<path d="M316.93 18.2828C316.93 15.4863 319.205 13.2117 322.002 13.2117C324.798 13.2117 327.073 15.4863 327.073 18.2828" stroke="#1F2147" stroke-width="2" stroke-miterlimit="10"/>
<path d="M313.966 91.3538C325.735 91.3538 335.276 81.813 335.276 70.0439C335.276 58.2748 325.735 48.7341 313.966 48.7341C302.197 48.7341 292.656 58.2748 292.656 70.0439C292.656 81.813 302.197 91.3538 313.966 91.3538Z" stroke="#1F2147" stroke-width="2" stroke-miterlimit="10"/>
<path d="M327.091 70.0439C327.091 77.2963 321.218 83.1691 313.966 83.1691C306.714 83.1691 300.841 77.2963 300.841 70.0439" stroke="#1F2147" stroke-width="2" stroke-miterlimit="10"/>
<path d="M300.841 66.0169C300.841 63.2203 303.115 60.9458 305.912 60.9458C308.708 60.9458 310.983 63.2203 310.983 66.0169" stroke="#1F2147" stroke-width="2" stroke-miterlimit="10"/>
<path d="M316.93 66.0169C316.93 63.2203 319.205 60.9458 322.002 60.9458C324.798 60.9458 327.073 63.2203 327.073 66.0169" stroke="#1F2147" stroke-width="2" stroke-miterlimit="10"/>
<path d="M168.344 43.6197C180.113 43.6197 189.654 34.079 189.654 22.3098C189.654 10.5407 180.113 1 168.344 1C156.575 1 147.034 10.5407 147.034 22.3098C147.034 34.079 156.575 43.6197 168.344 43.6197Z" stroke="#00A77E" stroke-width="2" stroke-miterlimit="10"/>
<path d="M181.469 22.3098C181.469 29.5622 175.597 35.435 168.344 35.435C161.092 35.435 155.219 29.5622 155.219 22.3098" stroke="#00A77E" stroke-width="2" stroke-miterlimit="10"/>
<path d="M155.219 18.2828C155.219 15.4863 157.494 13.2117 160.29 13.2117C163.087 13.2117 165.361 15.4863 165.361 18.2828" stroke="#00A77E" stroke-width="2" stroke-miterlimit="10"/>
<path d="M171.309 18.2828C171.309 15.4863 173.583 13.2117 176.38 13.2117C179.176 13.2117 181.451 15.4863 181.451 18.2828" stroke="#00A77E" stroke-width="2" stroke-miterlimit="10"/>
<path d="M168.344 91.3538C180.113 91.3538 189.654 81.813 189.654 70.0439C189.654 58.2748 180.113 48.7341 168.344 48.7341C156.575 48.7341 147.034 58.2748 147.034 70.0439C147.034 81.813 156.575 91.3538 168.344 91.3538Z" stroke="#00A77E" stroke-width="2" stroke-miterlimit="10"/>
<path d="M181.469 70.0439C181.469 77.2963 175.597 83.1691 168.344 83.1691C161.092 83.1691 155.219 77.2963 155.219 70.0439" stroke="#00A77E" stroke-width="2" stroke-miterlimit="10"/>
<path d="M155.219 66.0169C155.219 63.2203 157.494 60.9458 160.29 60.9458C163.087 60.9458 165.361 63.2203 165.361 66.0169" stroke="#00A77E" stroke-width="2" stroke-miterlimit="10"/>
<path d="M171.309 66.0169C171.309 63.2203 173.583 60.9458 176.38 60.9458C179.176 60.9458 181.451 63.2203 181.451 66.0169" stroke="#00A77E" stroke-width="2" stroke-miterlimit="10"/>
<path d="M168.344 139.088C180.113 139.088 189.654 129.547 189.654 117.778C189.654 106.009 180.113 96.4681 168.344 96.4681C156.575 96.4681 147.034 106.009 147.034 117.778C147.034 129.547 156.575 139.088 168.344 139.088Z" stroke="#1F2147" stroke-width="2" stroke-miterlimit="10"/>
<path d="M181.469 117.778C181.469 125.03 175.597 130.903 168.344 130.903C161.092 130.903 155.219 125.03 155.219 117.778" stroke="#1F2147" stroke-width="2" stroke-miterlimit="10"/>
<path d="M155.219 113.751C155.219 110.954 157.494 108.68 160.29 108.68C163.087 108.68 165.361 110.954 165.361 113.751" stroke="#1F2147" stroke-width="2" stroke-miterlimit="10"/>
<path d="M171.309 113.751C171.309 110.954 173.583 108.68 176.38 108.68C179.176 108.68 181.451 110.954 181.451 113.751" stroke="#1F2147" stroke-width="2" stroke-miterlimit="10"/>
<path d="M362.69 43.6197C374.459 43.6197 384 34.079 384 22.3098C384 10.5407 374.459 1 362.69 1C350.921 1 341.38 10.5407 341.38 22.3098C341.38 34.079 350.921 43.6197 362.69 43.6197Z" stroke="#00A77E" stroke-width="2" stroke-miterlimit="10"/>
<path d="M375.815 22.3098C375.815 29.5622 369.943 35.435 362.69 35.435C355.438 35.435 349.565 29.5622 349.565 22.3098" stroke="#00A77E" stroke-width="2" stroke-miterlimit="10"/>
<path d="M349.565 18.2828C349.565 15.4863 351.839 13.2117 354.636 13.2117C357.433 13.2117 359.707 15.4863 359.707 18.2828" stroke="#00A77E" stroke-width="2" stroke-miterlimit="10"/>
<path d="M365.655 18.2828C365.655 15.4863 367.929 13.2117 370.726 13.2117C373.522 13.2117 375.797 15.4863 375.797 18.2828" stroke="#00A77E" stroke-width="2" stroke-miterlimit="10"/>
<path d="M362.69 91.3538C374.459 91.3538 384 81.813 384 70.0439C384 58.2748 374.459 48.7341 362.69 48.7341C350.921 48.7341 341.38 58.2748 341.38 70.0439C341.38 81.813 350.921 91.3538 362.69 91.3538Z" stroke="#8ED8F8" stroke-width="2" stroke-miterlimit="10"/>
<path d="M375.815 70.0439C375.815 77.2963 369.943 83.1691 362.69 83.1691C355.438 83.1691 349.565 77.2963 349.565 70.0439" stroke="#8ED8F8" stroke-width="2" stroke-miterlimit="10"/>
<path d="M349.565 66.0169C349.565 63.2203 351.839 60.9458 354.636 60.9458C357.433 60.9458 359.707 63.2203 359.707 66.0169" stroke="#8ED8F8" stroke-width="2" stroke-miterlimit="10"/>
<path d="M365.655 66.0169C365.655 63.2203 367.929 60.9458 370.726 60.9458C373.522 60.9458 375.797 63.2203 375.797 66.0169" stroke="#8ED8F8" stroke-width="2" stroke-miterlimit="10"/>
</svg>
