<svg width="199" height="56" viewBox="0 0 199 56" fill="none" xmlns="http://www.w3.org/2000/svg">
<path fill-rule="evenodd" clip-rule="evenodd" d="M0 22.9596C0 28.6558 2.08654 33.8558 5.51923 37.8673C14.4904 28.9962 33.4519 24.6635 43.2077 22.9596C33.4519 21.2558 14.4904 16.9231 5.51923 8.05192C2.08654 12.0635 0 17.2654 0 22.9596Z" fill="url(#paint0_linear)"/>
<path fill-rule="evenodd" clip-rule="evenodd" d="M22.9596 0C20.0577 0 17.2943 0.559615 14.7366 1.54038C16.8058 4.13077 27.9616 17.1327 45.852 21.5788C45.1327 9.54423 35.175 0 22.9596 0Z" fill="url(#paint1_linear)"/>
<path fill-rule="evenodd" clip-rule="evenodd" d="M14.7366 44.3788C17.2943 45.3596 20.0577 45.9192 22.9596 45.9192C35.175 45.9192 45.1327 36.375 45.852 24.3404C27.9616 28.7885 16.8058 41.7885 14.7366 44.3788Z" fill="url(#paint2_linear)"/>
<path fill-rule="evenodd" clip-rule="evenodd" d="M194.405 3.84462C192.251 3.84462 190.505 5.59077 190.505 7.74462C190.505 9.90038 192.251 11.6465 194.405 11.6465C196.559 11.6465 198.305 9.90038 198.305 7.74462C198.305 5.59077 196.559 3.84462 194.405 3.84462ZM171.259 14.2331H176.23L176.817 16.8638H177.111C178.101 15.7523 179.04 14.2331 182.667 14.2331H187.934V19.4965H183.253C179.157 19.4965 177.111 21.5446 177.111 25.5812V43.485H171.259V14.2331ZM161.972 28.8581C161.972 22.7735 158.17 18.9138 153.195 18.9138C148.224 18.9138 144.422 22.7735 144.422 28.8581C144.422 34.9427 148.224 38.8042 153.195 38.8042C158.17 38.8042 161.972 34.9427 161.972 28.8581ZM138.57 28.8581C138.57 19.7908 144.713 13.6465 153.195 13.6465C161.68 13.6465 167.824 19.7908 167.824 28.8581C167.824 37.9273 161.68 44.0696 153.195 44.0696C144.713 44.0696 138.57 37.9273 138.57 28.8581ZM112.722 49.9196H118.574C119.745 49.9196 120.39 48.8081 120.567 48.1658L121.501 45.5331L109.509 14.2331H115.651L124.134 36.4638H125.301L132.909 14.2331H139.053L126.182 50.2138C125.011 53.4312 123.255 55.1869 118.868 55.1869H112.722V49.9196ZM84.5492 2.52923H90.4011V27.6888L102.688 14.2331H109.705L96.5435 28.5658L110.292 43.485H103.27L90.4011 29.4446V43.485H84.5492V2.52923ZM55.9435 30.9062C55.9435 34.71 59.805 38.2196 65.8896 38.2196C72.6185 38.2196 75.2511 35.5869 75.2511 32.0773C75.2511 29.0927 72.9088 27.1042 68.23 26.2254L60.33 24.7619C53.8358 23.5946 50.6781 19.5562 50.6781 13.9408C50.6781 7.21 56.2338 1.94654 65.305 1.94654C75.5415 1.94654 80.8088 7.79654 80.8088 15.1081H74.6646C74.6646 11.3062 71.155 7.79654 65.305 7.79654C59.7492 7.79654 56.8204 10.6638 56.8204 13.9408C56.8204 16.5715 58.5165 18.6215 62.9627 19.4965L69.3992 20.6677C77.6492 22.1292 81.3935 25.5812 81.3935 32.0773C81.3935 38.8042 76.1281 44.0696 65.8896 44.0696C55.6492 44.0696 49.8011 38.2196 49.8011 30.9062H55.9435ZM191.48 43.485H197.332V14.2331H191.48V43.485Z" fill="#263148"/>
<defs>
<linearGradient id="paint0_linear" x1="0" y1="37.8428" x2="43.1361" y2="37.8428" gradientUnits="userSpaceOnUse">
<stop stop-color="#C7EAFB"/>
<stop offset="1" stop-color="#8ED8F8"/>
</linearGradient>
<linearGradient id="paint1_linear" x1="14.7366" y1="21.5611" x2="45.8004" y2="21.5611" gradientUnits="userSpaceOnUse">
<stop stop-color="#C7EAFB"/>
<stop offset="1" stop-color="#8ED8F8"/>
</linearGradient>
<linearGradient id="paint2_linear" x1="14.7366" y1="45.9015" x2="45.8004" y2="45.9015" gradientUnits="userSpaceOnUse">
<stop stop-color="#C7EAFB"/>
<stop offset="1" stop-color="#8ED8F8"/>
</linearGradient>
</defs>
</svg>
