<svg width="319" height="178" viewBox="0 0 319 178" fill="none" xmlns="http://www.w3.org/2000/svg">
<g clip-path="url(#clip0)">
<path d="M26.8572 26.71C25.1715 26.0815 25.2286 23.6533 26.9143 23.0534C33.6286 20.6252 40.4286 16.5402 46.3429 14.3977C56.7429 10.6554 67.4572 7.65589 78.3715 5.79905C116.057 -0.599925 144.771 29.8809 181.057 32.5662C200.8 34.0231 218.571 29.2524 237.6 36.994C247.286 40.9363 256.514 46.1069 266.514 49.2207C281.943 54.0485 301.4 52.9915 317.086 49.3635C318.543 49.0207 319.629 50.7347 318.686 51.9059C300.171 75.245 279.171 89.2428 249.086 91.0139C236.657 91.7567 223.8 91.8138 211.914 95.9846C200.771 99.8982 190.286 104.469 178.171 102.498C164.514 100.298 151.771 94.6419 138.029 92.4994C110.343 88.2144 81.9715 101.555 56.6572 113.01C54.9143 113.782 53.2 111.925 54.1143 110.268C58.0572 103.241 62.7715 89.6999 57.5715 69.7031C51.1429 45.1642 39.3143 31.2807 26.8572 26.71Z" fill="#263148"/>
<path d="M5.11423 19.5111C13.8571 30.6808 20.9142 42.736 27.2571 55.2197C33.5142 67.732 38.9714 80.6156 43.8285 93.6992C45.0857 96.9558 46.2285 100.27 47.3428 103.583C48.4285 106.897 49.6571 110.182 50.6571 113.525C52.6285 120.238 54.6571 126.894 56.3142 133.693C59.9714 147.176 62.3999 160.946 64.4285 174.715C64.6571 176.286 63.5714 177.714 62.0285 177.943C60.5714 178.143 59.2285 177.257 58.8571 175.857L58.8285 175.715C56.9999 169.059 55.6571 162.345 53.7428 155.746C51.8285 149.147 50.1428 142.52 48.0285 136.007C44.0285 122.895 39.3714 110.011 34.4285 97.2701C29.5428 84.4721 23.9428 71.9884 18.1714 59.5904C12.3714 47.2495 6.42852 34.8515 0.342804 22.6821L0.314233 22.5678C-0.400053 21.1394 0.199947 19.4254 1.59995 18.7398C2.82852 18.1114 4.28566 18.4827 5.11423 19.5111Z" fill="#263148"/>
<path d="M18.1715 28.3954C16.4572 27.9669 16.2572 25.5388 17.8572 24.7674C24.2858 21.6537 30.6286 16.9116 36.2858 14.1692C46.2286 9.36992 56.6001 5.28486 67.2572 2.31391C104.057 -7.94158 135.772 19.4254 172.114 18.3685C191.914 17.7971 209.086 11.2268 228.829 16.9687C238.886 19.8825 248.572 24.0533 258.829 26.1387C274.686 29.3667 293.914 26.3101 309.143 21.0823C310.572 20.5967 311.8 22.1679 311 23.4534C295 48.5636 275.543 64.6753 245.8 69.5317C233.514 71.5314 220.743 72.9311 209.343 78.3017C198.657 83.3295 188.714 88.9571 176.429 88.243C162.629 87.4431 149.372 83.1295 135.486 82.4439C107.486 81.0156 80.6572 97.213 56.6572 111.239C55.0286 112.182 53.1144 110.525 53.8572 108.783C57.0572 101.384 60.3715 87.4145 53.1144 68.0748C44.2286 44.2215 31.0286 31.6521 18.1715 28.3954Z" fill="url(#paint0_linear)"/>
<path d="M100.257 31.3664C100.171 31.3093 100.057 31.2807 99.9429 31.3093L95.3715 32.0235C95.2 32.052 95.0572 32.1949 95.0572 32.3377L95.8286 46.6783C95.9143 48.1066 96.0572 49.5635 96.1715 51.049C96.2 51.4775 96.2572 51.9346 96.2857 52.3916C96.1143 51.9346 95.9429 51.4489 95.7429 50.9919C95.1429 49.4207 94.4286 47.6781 93.6572 45.8498L88.3143 33.3661C88.2572 33.2233 88.0857 33.1376 87.8857 33.1661L84.1143 33.7375C83.9429 33.7661 83.8 33.9089 83.8 34.0517L84.2 47.7924C84.2286 49.0493 84.3143 50.4777 84.4286 51.9917C84.4857 52.763 84.5715 53.5914 84.6572 54.4484L84.6 54.2485C84.2857 53.3058 83.9143 52.2774 83.4572 51.1633L76.8286 35.1658C76.7715 35.023 76.5715 34.9087 76.3715 34.9373L71.5429 35.68C71.4286 35.7086 71.3429 35.7657 71.2857 35.8514C71.2286 35.9371 71.2286 36.0514 71.2572 36.1371L84.6857 66.0751C84.7429 66.1894 84.8857 66.2751 85.0286 66.2751C85.0572 66.2751 85.0857 66.2751 85.1143 66.2751L89.0572 65.561C89.2286 65.5324 89.3715 65.3895 89.3715 65.2181L89 51.5061C89 51.3918 89 51.1347 88.9715 50.7348L88.6857 46.0784C88.6857 45.9641 88.6572 45.6784 88.6 45.1642C88.7143 45.4785 88.8286 45.7356 88.8857 45.9355L90.0857 48.9065L90.1429 49.0493C90.4 49.6778 90.6 50.1634 90.7429 50.5062C90.8857 50.9062 91 51.1347 91 51.1633L96.5429 63.9326C96.6 64.0755 96.8 64.1612 96.9714 64.1326L100.714 63.447C100.886 63.4184 101.029 63.2756 101.029 63.1042L100.4 31.6521C100.4 31.5093 100.343 31.4236 100.257 31.3664Z" fill="#263148"/>
<path d="M121.086 58.505C121.029 58.4478 120.943 58.4193 120.829 58.4193L113.343 58.505V48.678L119.943 48.6494C120.029 48.6494 120.143 48.6208 120.2 48.5637C120.257 48.5066 120.314 48.4209 120.314 48.3352V44.8786C120.314 44.7072 120.143 44.5643 119.971 44.5643H113.4V35.5372L120.857 35.5943C121.057 35.5943 121.229 35.4515 121.229 35.2801V31.8235C121.229 31.7378 121.2 31.6521 121.114 31.595C121.057 31.5379 120.914 31.5093 120.857 31.5093L108.286 31.3379C108.086 31.3379 107.914 31.4807 107.914 31.6521V62.4186C107.914 62.5043 107.943 62.59 108.029 62.6472C108.086 62.7043 108.2 62.7328 108.286 62.7328L120.943 62.5329C121.029 62.5329 121.143 62.5043 121.2 62.4472C121.257 62.3901 121.314 62.3044 121.314 62.2187V58.7335C121.171 58.6478 121.143 58.5621 121.086 58.505Z" fill="#263148"/>
<path d="M136.657 60.2189L129.571 59.3905L133.8 33.309C133.829 33.1376 133.686 32.9662 133.486 32.9662L128.943 32.3377C128.857 32.3091 128.743 32.3377 128.686 32.3948C128.6 32.452 128.572 32.5091 128.543 32.5948L123.629 62.5614C123.6 62.7328 123.743 62.9042 123.943 62.9042L136 64.2754C136 64.2754 136.029 64.2754 136.057 64.2754C136.229 64.2754 136.4 64.1611 136.4 63.9897L136.943 60.5903C136.943 60.5046 136.943 60.4189 136.886 60.3618C136.829 60.2761 136.743 60.2189 136.657 60.2189Z" fill="#263148"/>
<path d="M152.4 35.223C148.943 34.8231 146.171 35.88 144.143 38.3368C142.143 40.765 140.8 44.6786 140.114 50.0206C139.486 54.9912 139.886 58.8478 141.286 61.5045C142.714 64.2183 145.2 65.7324 148.657 66.0466C148.943 66.0752 149.229 66.0752 149.514 66.0752C150.571 66.0752 151.571 65.8752 152.514 65.5324C152.629 65.4753 152.714 65.3896 152.714 65.2753L153.171 61.6188C153.2 61.5045 153.143 61.4188 153.057 61.3331C152.971 61.276 152.829 61.2474 152.743 61.276C151.743 61.5616 150.857 61.7045 150.2 61.6473C148.229 61.4759 146.914 60.5047 146.114 58.6764C145.314 56.791 145.143 54.02 145.6 50.4491C145.857 48.4494 146.2 46.7069 146.6 45.25C147 43.8502 147.514 42.6789 148.114 41.7934C148.686 40.9364 149.343 40.3365 150.114 39.9651C150.857 39.6223 151.743 39.508 152.686 39.5937C153.4 39.6794 154.257 40.0222 155.286 40.5936C155.371 40.6507 155.514 40.6507 155.629 40.6221C155.743 40.565 155.8 40.4793 155.829 40.3936L156.257 36.8799C156.286 36.7656 156.229 36.6513 156.114 36.5942C154.886 35.8229 153.657 35.3658 152.4 35.223Z" fill="#263148"/>
<path d="M174.4 51.2204C174.2 47.5639 173.857 44.7643 173.343 42.8789C172.829 40.8221 172.114 39.1938 171.171 38.0797C169.714 36.3942 167.6 35.5372 164.829 35.6229C161.714 35.7086 159.514 36.9084 158.286 39.2223C157.114 41.4506 156.686 45.2499 156.971 50.5062C157.286 56.4767 158.143 60.5046 159.6 62.8185C160.971 65.0468 163.171 66.1609 166.086 66.1609C166.286 66.1609 166.514 66.1609 166.743 66.1323C169.829 65.9609 171.971 64.6754 173.143 62.3615C174.257 60.1047 174.686 56.3624 174.4 51.2204ZM163.543 59.9333C162.943 58.3336 162.514 55.3912 162.286 51.1347C162.029 46.5354 162.114 43.4217 162.514 41.9076C162.914 40.5078 163.771 39.7937 165.171 39.7651C165.229 39.7651 165.314 39.7651 165.371 39.7651C166.629 39.7937 167.514 40.5078 168.029 41.9362C168.6 43.5359 169.029 46.8497 169.314 51.8489C169.514 55.7054 169.4 58.3907 168.971 59.819C168.543 61.1902 167.714 61.8758 166.4 61.933C165.057 62.0187 164.114 61.3616 163.543 59.9333Z" fill="#263148"/>
<path d="M195.8 35.4515L192.257 35.3944C192.114 35.3944 191.971 35.4801 191.943 35.6229L189.657 46.9925L189.2 49.0493L188.371 54.1342C188.229 53.2486 188.057 52.3916 187.914 51.5632C187.629 50.1349 187.314 48.6494 186.971 47.1639L184.171 35.4801C184.143 35.3372 184 35.2515 183.857 35.2515L180.286 35.1944C180.114 35.1944 179.971 35.3087 179.971 35.4515L177.571 64.304C177.571 64.3897 177.6 64.4754 177.657 64.5326C177.714 64.5897 177.8 64.6183 177.886 64.6183L181.857 64.5611C182.029 64.5611 182.171 64.4183 182.171 64.2754L183.086 47.5353C183.171 48.0495 183.257 48.5637 183.371 49.0779C183.629 50.5348 183.943 51.9917 184.286 53.4486L186.8 64.2754C186.829 64.4183 186.971 64.504 187.114 64.504L189.914 64.4754C190.057 64.4754 190.2 64.3611 190.229 64.2183L192.686 51.706L193.371 48.1352C193.4 47.9638 193.429 47.7924 193.457 47.621L193.714 52.2774C193.714 52.5059 193.743 52.8201 193.743 53.1629L194.6 64.1326C194.6 64.2754 194.743 64.4183 194.914 64.4183L198.829 64.3612C198.914 64.3612 199 64.3326 199.057 64.2754C199.114 64.2183 199.143 64.1326 199.143 64.0469L196.086 35.7086C196.086 35.5658 195.943 35.4515 195.8 35.4515Z" fill="#263148"/>
<path d="M215.371 58.6192C215.343 58.4763 215.171 58.3621 215.029 58.3906L208.886 59.4762L207.143 50.6205L212.571 49.7349C212.743 49.7063 212.857 49.5635 212.829 49.3921L212.2 46.2497C212.171 46.1069 212 45.9926 211.829 46.0212L206.371 46.9068L204.771 38.7081L210.943 37.7654C211.114 37.7368 211.229 37.594 211.2 37.4226L210.571 34.2802C210.571 34.1945 210.514 34.1374 210.429 34.0803C210.371 34.0231 210.286 34.0231 210.2 34.0231L199.771 35.5943C199.6 35.6229 199.486 35.7657 199.514 35.9371L204.971 63.7326C205 63.8183 205.029 63.8755 205.114 63.9326C205.171 63.9612 205.229 63.9897 205.286 63.9897C205.314 63.9897 205.314 63.9897 205.343 63.9897L215.743 62.1329C215.829 62.1329 215.886 62.0758 215.943 62.0186C216 61.9615 216 61.8758 216 61.7901L215.371 58.6192Z" fill="#263148"/>
</g>
<defs>
<linearGradient id="paint0_linear" x1="16.7501" y1="55.747" x2="311.281" y2="55.747" gradientUnits="userSpaceOnUse">
<stop stop-color="#C7EAFB"/>
<stop offset="0.2717" stop-color="#B3E4FA"/>
<stop offset="0.7226" stop-color="#98DBF8"/>
<stop offset="1" stop-color="#8ED8F8"/>
</linearGradient>
<clipPath id="clip0">
<rect width="319" height="178" fill="white"/>
</clipPath>
</defs>
</svg>
